<?xml version="1.0" encoding="UTF-8" standalone="no"?>
<!-- Created with Inkscape (http://www.inkscape.org/) -->

<svg
   xmlns:dc="http://purl.org/dc/elements/1.1/"
   xmlns:cc="http://creativecommons.org/ns#"
   xmlns:rdf="http://www.w3.org/1999/02/22-rdf-syntax-ns#"
   xmlns:svg="http://www.w3.org/2000/svg"
   xmlns="http://www.w3.org/2000/svg"
   xmlns:sodipodi="http://sodipodi.sourceforge.net/DTD/sodipodi-0.dtd"
   xmlns:inkscape="http://www.inkscape.org/namespaces/inkscape"
   width="1206.5544"
   height="536.79028"
   id="svg2"
   sodipodi:version="0.32"
   inkscape:version="0.91 r13725"
   sodipodi:docname="EHU.svg"
   version="1.0">
  <defs
     id="defs4" />
  <sodipodi:namedview
     id="base"
     pagecolor="#ffffff"
     bordercolor="#666666"
     borderopacity="1.0"
     gridtolerance="10000"
     guidetolerance="10"
     objecttolerance="10"
     inkscape:pageopacity="0.0"
     inkscape:pageshadow="2"
     inkscape:zoom="0.45961941"
     inkscape:cx="470.3161"
     inkscape:cy="291.41378"
     inkscape:document-units="px"
     inkscape:current-layer="layer2"
     inkscape:window-width="1272"
     inkscape:window-height="721"
     inkscape:window-x="0"
     inkscape:window-y="0"
     showguides="true"
     inkscape:guide-bbox="true"
     width="1250px"
     showgrid="false"
     inkscape:window-maximized="0" />
  <metadata
     id="metadata7">
    <rdf:RDF>
      <cc:Work
         rdf:about="">
        <dc:format>image/svg+xml</dc:format>
        <dc:type
           rdf:resource="http://purl.org/dc/dcmitype/StillImage" />
        <dc:title></dc:title>
      </cc:Work>
    </rdf:RDF>
  </metadata>
  <g
     inkscape:groupmode="layer"
     id="layer2"
     inkscape:label="curve"
     style="opacity:1;display:inline"
     transform="translate(234.3846,-50.57372)">
    <path
       style="fill:black;fill-opacity:1;fill-rule:evenodd;stroke:black;stroke-width:1.00300002;stroke-linecap:round;stroke-linejoin:round;stroke-miterlimit:4;stroke-dasharray:none;stroke-opacity:1"
       d="M 341.52937,180.48791 C 349.24521,181.45239 347.49963,182.13967 349.24521,176.62999 C 350.80037,171.72134 354.82419,153.53438 354.3501,141.90872 C 354.0037,133.41436 354.08429,135.72497 347.31625,132.94592 C 340.33402,130.07891 329.27363,128.40601 327.34467,128.40601 C 325.41571,128.40601 307.10972,126.88649 297.16331,126.47705 C 291.30581,126.23593 288.72411,125.03033 288.48299,119.72569 C 288.22274,114.00025 288.21369,111.18315 288.48299,105.2585 C 288.72411,99.953856 288.00075,97.060416 278.8382,97.542656 C 257.1193,98.685756 218.20913,98.816856 202.64431,99.471616 C 198.78228,99.634076 194.13449,98.024896 194.92847,108.15194 C 197.60614,142.30496 195.98105,200.84041 198.1044,236.42772 C 198.3929,241.26295 200.97776,250.61825 209.56114,250.49542 C 214.8282,250.42004 240.96532,252.24302 252.79725,253.10636 C 259.73832,253.61284 259.14911,257.41225 259.14911,259.34121 C 259.14911,261.27017 259.1666,278.0152 259.26612,286.81468 C 259.34885,294.13102 261.73368,294.57909 266.29996,298.15442 C 268.5698,299.93167 274.06574,305.23544 279.80268,307.79921 C 282.4621,308.98768 285.46954,310.72461 289.89545,311.09215 C 300.32547,311.95829 302.45979,311.78827 308.05508,311.65713 C 313.17818,311.53706 315.57618,309.66967 316.4529,319.70392 C 317.7565,334.62384 317.94822,357.72965 317.69987,370.88989 C 317.58286,377.09046 317.07725,377.18826 324.16874,377.24175 C 347.72093,377.4383 386.61163,379.25079 412.21888,377.92374 C 419.7341,377.53428 424.43005,377.40558 425.15661,359.31614 C 426.17457,333.97137 424.65445,322.61171 425.15661,305.87026 C 425.47033,295.41107 433.38771,292.31574 439.2243,291.80256 C 462.1262,289.78891 497.29609,287.84781 510.59579,287.94464 C 516.52529,287.98781 517.45358,284.67098 521.32209,278.86483 C 524.86583,273.54612 523.06558,276.29943 525.46249,271.266 C 527.7032,266.56061 527.7321,265.28701 527.95643,260.37423 C 528.23893,254.18786 527.51606,254.33852 527.95643,249.93043 C 528.37103,245.78037 528.66276,244.94263 532.49634,243.46157 C 537.48923,241.53261 536.88497,241.73236 543.15408,242.2146 C 549.4232,242.69684 551.70632,244.99874 557.57281,246.07252 C 564.86491,247.40725 567.29483,246.91288 571.64051,244.82555 C 573.91294,243.73404 577.72603,242.63694 582.64928,240.28564 C 587.87118,237.7917 588.35342,235.17487 588.43616,228.71188 C 588.76387,203.11436 588.39521,162.96458 588.43616,138.05081 C 588.44118,134.99777 588.853,130.027 583.00031,129.20501 C 574.19445,127.96826 560.49415,125.16589 550.53896,124.54809 C 541.43491,123.98311 539.44243,120.43192 537.71824,118.76121 C 533.16639,114.35057 533.13881,114.16142 529.32041,109.6814 C 525.862,105.62373 523.80097,105.34124 517.06467,105.2585 C 500.71759,105.05771 470.40707,105.57065 463.50177,105.2585 C 456.76544,104.95398 458.31414,105.70647 457.94891,113.53932 C 457.62736,120.43545 456.71368,128.4627 457.26692,131.13397 C 458.5139,137.15487 463.11231,136.43861 465.54774,136.80384 C 470.58036,137.55855 467.95122,137.37325 475.19254,138.05081 C 483.67812,138.84479 487.34115,141.00121 495.39814,142.02574 C 502.94348,142.9852 505.3739,143.36964 506.05589,148.70854 C 506.3003,150.62196 510.89369,172.40251 510.71281,181.73487 C 510.57156,189.02196 508.74957,190.44946 506.85489,190.81469 C 501.13329,191.91761 493.40502,191.26514 487.44829,191.37967 C 482.88414,191.46743 482.3434,190.84394 481.77842,187.75577 C 480.67567,181.72815 480.41444,170.7261 480.41444,168.79714 C 480.41444,163.45822 478.70925,164.57292 476.10855,164.37424 C 470.63939,163.9564 460.7636,164.02588 454.20801,163.80926 C 450.66685,163.69225 446.42865,164.07254 446.94014,170.04411 C 448.14829,184.14894 449.25015,207.07528 450.79806,219.74908 C 451.16329,222.73945 450.56442,222.88229 457.26692,222.92501 C 460.99491,222.94876 463.38968,223.13443 473.4976,222.24302 C 476.90709,221.94234 478.82648,221.01526 479.05046,226.54891 C 479.25692,231.64964 479.16747,237.7917 479.16747,241.64962 C 479.16747,246.18953 482.02663,251.9764 475.99154,252.42437 C 464.54616,253.27394 437.14769,255.37485 435.24938,255.71732 C 424.79103,257.60404 424.93632,252.92994 424.47462,246.75451 C 424.3308,244.83092 423.36424,233.27359 423.11064,226.10094 C 422.97442,222.24804 414.94684,219.74908 413.01787,219.74908 C 411.08892,219.74908 378.96698,216.96522 365.92385,215.77415 C 359.04129,215.14565 358.89001,218.71605 358.20802,224.73696 C 357.99091,226.65366 358.35151,237.5619 358.89001,242.2146 C 359.62863,248.59641 361.91508,247.21604 366.48883,247.31949 C 370.147,247.40222 370.83152,247.56734 376.25064,248.00148 C 380.0793,248.3082 386.5823,250.20418 386.57742,260.14021 C 386.56872,276.65338 387.31052,295.01926 387.14241,308.59822 C 387.05967,315.28103 383.40149,315.51505 380.10856,315.51505 C 378.1796,315.51505 368.12243,314.50596 361.50095,314.26808 C 358.61595,314.16444 355.73675,311.55327 355.03209,304.62328 C 354.39873,298.39452 354.91508,286.46365 354.91508,284.53469 C 354.91508,278.51379 352.77218,278.29985 347.43326,278.29985 C 345.5043,278.29985 310.65612,276.85762 308.73707,277.05287 C 302.03417,277.73486 299.77426,275.80591 299.09227,269.22003 C 298.69489,265.38263 297.81577,260.65074 298.41028,255.6003 C 298.83401,252.00064 297.79987,249.99091 303.51517,249.36546 C 310.24941,248.62849 318.6556,246.15247 322.23978,244.14356 C 324.18324,243.05427 324.33924,241.53971 324.16874,238.35668 C 323.74304,230.40929 323.65593,220.27372 321.55779,212.31573 C 319.42908,204.24177 315.43918,208.75278 306.80811,210.38677 C 298.92728,211.87873 296.61038,213.74715 288.20051,210.10428 C 281.75747,207.31338 271.7458,203.97334 279.12069,192.06166 C 283.36183,185.2115 291.46554,165.44806 293.30539,161.19831 C 295.79057,155.45799 298.12779,156.61703 302.95019,158.30487 C 307.50754,159.89994 308.97819,159.51047 312.59499,161.19831 C 316.21179,162.88616 316.89167,163.37666 317.41738,166.02071 C 317.6585,167.23341 317.47406,166.35448 317.41738,170.84311 C 317.37433,174.25279 316.45291,176.14775 322.23978,176.62999 C 324.52433,176.82037 334.83015,179.6505 341.52937,180.48791 z "
       id="path1916"
       sodipodi:nodetypes="csssssssssssssssssssssssssssssssssssssssssssssssssssssssssssssssssssssssssssssssssssssssssssssssss" />
    <g
       transform="scale(1.003089,0.99692)"
       style="font-style:normal;font-weight:normal;font-size:13.28443813px;line-height:100%;font-family:'Bitstream Vera Sans';fill:#000000;fill-opacity:1;stroke:none;stroke-width:1px;stroke-linecap:butt;stroke-linejoin:miter;stroke-opacity:1"
       id="text5494">
      <path
         d="m 256.05379,69.859541 c 0,-2.834011 -0.21255,-4.534418 -0.74393,-5.915999 -1.20445,-3.046562 -4.03846,-4.88867 -7.51013,-4.88867 -5.17207,0 -8.50203,3.967616 -8.50203,10.060741 0,6.093125 3.22369,9.84819 8.43118,9.84819 4.25102,0 7.19131,-2.40891 7.93523,-6.447376 l -2.97571,0 c -0.81478,2.444335 -2.47976,3.71964 -4.85324,3.71964 -1.87754,0 -3.47167,-0.850203 -4.46357,-2.40891 -0.7085,-1.062754 -0.95648,-2.125508 -0.99191,-3.967616 l 13.67411,0 z m -13.60325,-2.40891 c 0.24797,-3.436239 2.33805,-5.668023 5.31377,-5.668023 2.90486,0 5.13664,2.40891 5.13664,5.455473 0,0.07085 0,0.1417 -0.0354,0.21255 l -10.41499,0 z"
         style="font-style:normal;font-variant:normal;font-weight:normal;font-stretch:normal;font-size:35.4251442px;line-height:100%;font-family:'Nimbus Sans L';text-align:start;writing-mode:lr-tb;text-anchor:start"
         id="path3449" />
      <path
         d="m 260.07953,59.586249 0,18.562776 2.97571,0 0,-11.654872 c 0,-2.692311 1.94838,-4.853245 4.35729,-4.853245 2.19636,0 3.43624,1.346155 3.43624,3.71964 l 0,12.788477 2.97571,0 0,-11.654872 c 0,-2.692311 1.94838,-4.853245 4.35729,-4.853245 2.16094,0 3.43624,1.38158 3.43624,3.71964 l 0,12.788477 2.97572,0 0,-13.922082 c 0,-3.329963 -1.91296,-5.172071 -5.38463,-5.172071 -2.47976,0 -3.96761,0.743928 -5.70344,2.834012 -1.09818,-1.983808 -2.58604,-2.834012 -4.99495,-2.834012 -2.47976,0 -4.10932,0.921054 -5.70345,3.152838 l 0,-2.621461 -2.72773,0 z"
         style="font-style:normal;font-variant:normal;font-weight:normal;font-stretch:normal;font-size:35.4251442px;line-height:100%;font-family:'Nimbus Sans L';text-align:start;writing-mode:lr-tb;text-anchor:start"
         id="path3451" />
      <path
         d="m 306.09624,76.413193 c -0.31883,0.07085 -0.46053,0.07085 -0.63766,0.07085 -1.02733,0 -1.59413,-0.531377 -1.59413,-1.452431 l 0,-10.910944 c 0,-3.294539 -2.40891,-5.065796 -6.97875,-5.065796 -2.69231,0 -4.9241,0.779353 -6.16398,2.160934 -0.8502,0.956479 -1.20445,2.019233 -1.2753,3.861341 l 2.97571,0 c 0.24798,-2.267209 1.59413,-3.294539 4.35729,-3.294539 2.65689,0 4.14474,0.991904 4.14474,2.763162 l 0,0.779353 c 0,1.23988 -0.74392,1.771257 -3.08198,2.054658 -4.18017,0.531377 -4.81782,0.673078 -5.95143,1.133605 -2.16093,0.885628 -3.25911,2.55061 -3.25911,4.95952 0,3.365389 2.33806,5.490897 6.09312,5.490897 2.33806,0 4.2156,-0.814778 6.30568,-2.727736 0.21255,1.877533 1.1336,2.727736 3.04656,2.727736 0.60223,0 1.06276,-0.07085 2.01924,-0.318826 l 0,-2.231784 z m -5.17208,-4.109317 c 0,0.991904 -0.2834,1.594132 -1.16903,2.40891 -1.20445,1.098179 -2.65688,1.664982 -4.39271,1.664982 -2.30264,0 -3.64879,-1.09818 -3.64879,-2.975712 0,-1.948383 1.31073,-2.940287 4.46357,-3.400814 3.11741,-0.425102 3.75506,-0.566803 4.74696,-1.027329 l 0,3.329963 z"
         style="font-style:normal;font-variant:normal;font-weight:normal;font-stretch:normal;font-size:35.4251442px;line-height:100%;font-family:'Nimbus Sans L';text-align:start;writing-mode:lr-tb;text-anchor:start"
         id="path3453" />
      <path
         d="m 309.34261,59.586249 0,18.562776 2.97572,0 0,-10.237867 c 0,-3.79049 1.9838,-6.27025 5.03037,-6.27025 2.33806,0 3.82591,1.417006 3.82591,3.64879 l 0,12.859327 2.94029,0 0,-14.028357 c 0,-3.081988 -2.30264,-5.065796 -5.88057,-5.065796 -2.76317,0 -4.53442,1.062755 -6.16398,3.64879 l 0,-3.117413 -2.72774,0 z"
         style="font-style:normal;font-variant:normal;font-weight:normal;font-stretch:normal;font-size:35.4251442px;line-height:100%;font-family:'Nimbus Sans L';text-align:start;writing-mode:lr-tb;text-anchor:start"
         id="path3455" />
      <path
         d="m 345.40486,59.586249 -3.04656,0 0,-5.10122 -2.94029,0 0,5.10122 -2.51518,0 0,2.40891 2.51518,0 0,14.028357 c 0,1.877533 1.27531,2.940287 3.57794,2.940287 0.70851,0 1.41701,-0.07085 2.40891,-0.247976 l 0,-2.47976 c -0.38967,0.106276 -0.8502,0.141701 -1.417,0.141701 -1.27531,0 -1.62956,-0.354252 -1.62956,-1.664982 l 0,-12.717627 3.04656,0 0,-2.40891 z"
         style="font-style:normal;font-variant:normal;font-weight:normal;font-stretch:normal;font-size:35.4251442px;line-height:100%;font-family:'Nimbus Sans L';text-align:start;writing-mode:lr-tb;text-anchor:start"
         id="path3457" />
      <path
         d="m 365.18426,76.413193 c -0.31882,0.07085 -0.46052,0.07085 -0.63765,0.07085 -1.02733,0 -1.59413,-0.531377 -1.59413,-1.452431 l 0,-10.910944 c 0,-3.294539 -2.40891,-5.065796 -6.97875,-5.065796 -2.69231,0 -4.9241,0.779353 -6.16398,2.160934 -0.8502,0.956479 -1.20445,2.019233 -1.2753,3.861341 l 2.97571,0 c 0.24797,-2.267209 1.59413,-3.294539 4.35729,-3.294539 2.65689,0 4.14474,0.991904 4.14474,2.763162 l 0,0.779353 c 0,1.23988 -0.74393,1.771257 -3.08198,2.054658 -4.18017,0.531377 -4.81782,0.673078 -5.95143,1.133605 -2.16093,0.885628 -3.25911,2.55061 -3.25911,4.95952 0,3.365389 2.33806,5.490897 6.09312,5.490897 2.33806,0 4.21559,-0.814778 6.30568,-2.727736 0.21255,1.877533 1.1336,2.727736 3.04656,2.727736 0.60223,0 1.06275,-0.07085 2.01923,-0.318826 l 0,-2.231784 z m -5.17207,-4.109317 c 0,0.991904 -0.2834,1.594132 -1.16903,2.40891 -1.20445,1.098179 -2.65688,1.664982 -4.39272,1.664982 -2.30263,0 -3.64878,-1.09818 -3.64878,-2.975712 0,-1.948383 1.31073,-2.940287 4.46356,-3.400814 3.11742,-0.425102 3.75507,-0.566803 4.74697,-1.027329 l 0,3.329963 z"
         style="font-style:normal;font-variant:normal;font-weight:normal;font-stretch:normal;font-size:35.4251442px;line-height:100%;font-family:'Nimbus Sans L';text-align:start;writing-mode:lr-tb;text-anchor:start"
         id="path3459" />
      <path
         d="m 391.46917,59.586249 -13.85123,0 0,2.586036 10.34414,0 -11.08807,13.319854 0,2.656886 15.09111,0 0,-2.586036 -11.51317,0 11.01722,-13.355279 0,-2.621461 z"
         style="font-style:normal;font-variant:normal;font-weight:normal;font-stretch:normal;font-size:35.4251442px;line-height:100%;font-family:'Nimbus Sans L';text-align:start;writing-mode:lr-tb;text-anchor:start"
         id="path3461" />
      <path
         d="m 412.44086,76.413193 c -0.31883,0.07085 -0.46053,0.07085 -0.63766,0.07085 -1.02733,0 -1.59413,-0.531377 -1.59413,-1.452431 l 0,-10.910944 c 0,-3.294539 -2.40891,-5.065796 -6.97875,-5.065796 -2.69231,0 -4.9241,0.779353 -6.16398,2.160934 -0.8502,0.956479 -1.20445,2.019233 -1.2753,3.861341 l 2.97571,0 c 0.24798,-2.267209 1.59413,-3.294539 4.35729,-3.294539 2.65689,0 4.14474,0.991904 4.14474,2.763162 l 0,0.779353 c 0,1.23988 -0.74392,1.771257 -3.08198,2.054658 -4.18017,0.531377 -4.81782,0.673078 -5.95143,1.133605 -2.16093,0.885628 -3.25911,2.55061 -3.25911,4.95952 0,3.365389 2.33806,5.490897 6.09312,5.490897 2.33806,0 4.2156,-0.814778 6.30568,-2.727736 0.21255,1.877533 1.1336,2.727736 3.04656,2.727736 0.60223,0 1.06276,-0.07085 2.01924,-0.318826 l 0,-2.231784 z m -5.17208,-4.109317 c 0,0.991904 -0.2834,1.594132 -1.16903,2.40891 -1.20445,1.098179 -2.65688,1.664982 -4.39271,1.664982 -2.30264,0 -3.64879,-1.09818 -3.64879,-2.975712 0,-1.948383 1.31073,-2.940287 4.46357,-3.400814 3.11741,-0.425102 3.75506,-0.566803 4.74696,-1.027329 l 0,3.329963 z"
         style="font-style:normal;font-variant:normal;font-weight:normal;font-stretch:normal;font-size:35.4251442px;line-height:100%;font-family:'Nimbus Sans L';text-align:start;writing-mode:lr-tb;text-anchor:start"
         id="path3463" />
      <path
         d="m 415.12043,52.324095 0,25.82493 2.65689,0 0,-2.373485 c 1.417,2.160934 3.29454,3.188263 5.88057,3.188263 4.88867,0 8.07693,-4.003041 8.07693,-10.167016 0,-6.022275 -3.04656,-9.741915 -7.93523,-9.741915 -2.55061,0 -4.35729,0.956479 -5.73887,3.046563 l 0,-9.77734 -2.94029,0 z m 8.11236,9.493938 c 3.29454,0 5.42005,2.869437 5.42005,7.29758 0,4.215592 -2.19636,7.085029 -5.42005,7.085029 -3.11741,0 -5.17207,-2.834012 -5.17207,-7.191304 0,-4.357293 2.05466,-7.191305 5.17207,-7.191305 z"
         style="font-style:normal;font-variant:normal;font-weight:normal;font-stretch:normal;font-size:35.4251442px;line-height:100%;font-family:'Nimbus Sans L';text-align:start;writing-mode:lr-tb;text-anchor:start"
         id="path3465" />
      <path
         d="m 451.87901,76.413193 c -0.31882,0.07085 -0.46053,0.07085 -0.63765,0.07085 -1.02733,0 -1.59413,-0.531377 -1.59413,-1.452431 l 0,-10.910944 c 0,-3.294539 -2.40891,-5.065796 -6.97876,-5.065796 -2.69231,0 -4.92409,0.779353 -6.16397,2.160934 -0.8502,0.956479 -1.20446,2.019233 -1.27531,3.861341 l 2.97572,0 c 0.24797,-2.267209 1.59413,-3.294539 4.35729,-3.294539 2.65688,0 4.14474,0.991904 4.14474,2.763162 l 0,0.779353 c 0,1.23988 -0.74393,1.771257 -3.08199,2.054658 -4.18016,0.531377 -4.81782,0.673078 -5.95142,1.133605 -2.16094,0.885628 -3.25911,2.55061 -3.25911,4.95952 0,3.365389 2.33806,5.490897 6.09312,5.490897 2.33806,0 4.21559,-0.814778 6.30568,-2.727736 0.21255,1.877533 1.1336,2.727736 3.04656,2.727736 0.60223,0 1.06275,-0.07085 2.01923,-0.318826 l 0,-2.231784 z m -5.17207,-4.109317 c 0,0.991904 -0.2834,1.594132 -1.16903,2.40891 -1.20445,1.098179 -2.65689,1.664982 -4.39272,1.664982 -2.30263,0 -3.64879,-1.09818 -3.64879,-2.975712 0,-1.948383 1.31073,-2.940287 4.46357,-3.400814 3.11741,-0.425102 3.75507,-0.566803 4.74697,-1.027329 l 0,3.329963 z"
         style="font-style:normal;font-variant:normal;font-weight:normal;font-stretch:normal;font-size:35.4251442px;line-height:100%;font-family:'Nimbus Sans L';text-align:start;writing-mode:lr-tb;text-anchor:start"
         id="path3467" />
      <path
         d="m 458.03025,52.324095 -2.97571,0 0,25.82493 2.97571,0 0,-25.82493 z"
         style="font-style:normal;font-variant:normal;font-weight:normal;font-stretch:normal;font-size:35.4251442px;line-height:100%;font-family:'Nimbus Sans L';text-align:start;writing-mode:lr-tb;text-anchor:start"
         id="path3469" />
      <path
         d="m 486.05154,59.586249 -13.85123,0 0,2.586036 10.34414,0 -11.08807,13.319854 0,2.656886 15.09111,0 0,-2.586036 -11.51317,0 11.01722,-13.355279 0,-2.621461 z"
         style="font-style:normal;font-variant:normal;font-weight:normal;font-stretch:normal;font-size:35.4251442px;line-height:100%;font-family:'Nimbus Sans L';text-align:start;writing-mode:lr-tb;text-anchor:start"
         id="path3471" />
      <path
         d="m 507.02322,76.413193 c -0.31882,0.07085 -0.46052,0.07085 -0.63765,0.07085 -1.02733,0 -1.59413,-0.531377 -1.59413,-1.452431 l 0,-10.910944 c 0,-3.294539 -2.40891,-5.065796 -6.97876,-5.065796 -2.69231,0 -4.92409,0.779353 -6.16397,2.160934 -0.8502,0.956479 -1.20446,2.019233 -1.27531,3.861341 l 2.97572,0 c 0.24797,-2.267209 1.59413,-3.294539 4.35729,-3.294539 2.65689,0 4.14474,0.991904 4.14474,2.763162 l 0,0.779353 c 0,1.23988 -0.74393,1.771257 -3.08199,2.054658 -4.18016,0.531377 -4.81782,0.673078 -5.95142,1.133605 -2.16093,0.885628 -3.25911,2.55061 -3.25911,4.95952 0,3.365389 2.33806,5.490897 6.09312,5.490897 2.33806,0 4.21559,-0.814778 6.30568,-2.727736 0.21255,1.877533 1.1336,2.727736 3.04656,2.727736 0.60223,0 1.06275,-0.07085 2.01923,-0.318826 l 0,-2.231784 z m -5.17207,-4.109317 c 0,0.991904 -0.2834,1.594132 -1.16903,2.40891 -1.20445,1.098179 -2.65688,1.664982 -4.39272,1.664982 -2.30263,0 -3.64879,-1.09818 -3.64879,-2.975712 0,-1.948383 1.31073,-2.940287 4.46357,-3.400814 3.11741,-0.425102 3.75507,-0.566803 4.74697,-1.027329 l 0,3.329963 z"
         style="font-style:normal;font-variant:normal;font-weight:normal;font-stretch:normal;font-size:35.4251442px;line-height:100%;font-family:'Nimbus Sans L';text-align:start;writing-mode:lr-tb;text-anchor:start"
         id="path3473" />
      <path
         d="m 523.48318,59.586249 -13.85123,0 0,2.586036 10.34414,0 -11.08807,13.319854 0,2.656886 15.09111,0 0,-2.586036 -11.51317,0 11.01722,-13.355279 0,-2.621461 z"
         style="font-style:normal;font-variant:normal;font-weight:normal;font-stretch:normal;font-size:35.4251442px;line-height:100%;font-family:'Nimbus Sans L';text-align:start;writing-mode:lr-tb;text-anchor:start"
         id="path3475" />
      <path
         d="m 542.57735,78.149025 0,-18.562776 -2.94029,0 0,10.521268 c 0,3.790491 -1.98381,6.270251 -5.0658,6.270251 -2.33806,0 -3.82591,-1.417006 -3.82591,-3.64879 l 0,-13.142729 -2.94029,0 0,14.311759 c 0,3.081987 2.30263,5.065795 5.916,5.065795 2.72774,0 4.46357,-0.956479 6.1994,-3.400814 l 0,2.586036 2.65689,0 z"
         style="font-style:normal;font-variant:normal;font-weight:normal;font-stretch:normal;font-size:35.4251442px;line-height:100%;font-family:'Nimbus Sans L';text-align:start;writing-mode:lr-tb;text-anchor:start"
         id="path3477" />
    </g>
    <g
       transform="scale(1.003089,0.99692)"
       style="font-style:normal;font-weight:normal;font-size:30.09465981px;line-height:100%;font-family:'Bitstream Vera Sans';display:inline;opacity:1;fill:#000000;fill-opacity:1;stroke:none;stroke-width:1px;stroke-linecap:butt;stroke-linejoin:miter;stroke-opacity:1"
       id="text5500">
      <path
         d="m 448.08367,457.90831 31.86019,0 0,-6.5807 -31.86019,0 0,-18.6988 33.06398,0 0,-6.58069 -40.52745,0 0,58.50397 41.97199,0 0,-6.58069 -34.50852,0 0,-20.06309 z"
         style="font-style:normal;font-variant:normal;font-weight:normal;font-stretch:normal;font-size:80.25236511px;line-height:100%;font-family:'Nimbus Sans L';text-align:start;writing-mode:lr-tb;text-anchor:start"
         id="path3422" />
      <path
         d="m 525.6852,484.55209 0,-42.05224 -6.66094,0 0,23.83496 c 0,8.587 -4.49414,14.20467 -11.47609,14.20467 -5.29666,0 -8.66726,-3.2101 -8.66726,-8.266 l 0,-29.77363 -6.66094,0 0,32.42196 c 0,6.98196 5.2164,11.47609 13.40214,11.47609 6.17943,0 10.1118,-2.16682 14.04417,-7.70423 l 0,5.85842 6.01892,0 z"
         style="font-style:normal;font-variant:normal;font-weight:normal;font-stretch:normal;font-size:80.25236511px;line-height:100%;font-family:'Nimbus Sans L';text-align:start;writing-mode:lr-tb;text-anchor:start"
         id="path3424" />
      <path
         d="m 566.82583,454.2167 c -0.0802,-8.26599 -5.53741,-12.92063 -15.24795,-12.92063 -9.79079,0 -16.13073,5.0559 -16.13073,12.84038 0,6.58069 3.3706,9.71053 13.3219,12.1181 l 6.25968,1.5248 c 4.65464,1.12353 6.50044,2.80883 6.50044,5.85842 0,3.93237 -3.93236,6.5807 -9.79079,6.5807 -3.61135,0 -6.66094,-1.04328 -8.34624,-2.80884 -1.04328,-1.20378 -1.5248,-2.40757 -1.92606,-5.37691 l -7.06221,0 c 0.32101,9.71054 5.77817,14.36518 16.77275,14.36518 10.59331,0 17.33451,-5.21641 17.33451,-13.32189 0,-6.25969 -3.53111,-9.71054 -11.87735,-11.71685 l -6.42019,-1.52479 c -5.45716,-1.28404 -7.78448,-3.04959 -7.78448,-6.01893 0,-3.85212 3.45085,-6.33994 8.90801,-6.33994 5.37691,0 8.266,2.32732 8.4265,6.7412 l 7.06221,0 z"
         style="font-style:normal;font-variant:normal;font-weight:normal;font-stretch:normal;font-size:80.25236511px;line-height:100%;font-family:'Nimbus Sans L';text-align:start;writing-mode:lr-tb;text-anchor:start"
         id="path3426" />
      <path
         d="m 583.11705,426.04812 -6.66094,0 0,58.50397 6.66094,0 0,-16.37148 6.50044,-6.42019 14.20467,22.79167 8.266,0 -17.17401,-27.52656 14.60593,-14.52568 -8.587,0 -17.81603,17.81603 0,-34.26776 z"
         style="font-style:normal;font-variant:normal;font-weight:normal;font-stretch:normal;font-size:80.25236511px;line-height:100%;font-family:'Nimbus Sans L';text-align:start;writing-mode:lr-tb;text-anchor:start"
         id="path3428" />
      <path
         d="m 654.86267,480.61973 c -0.72227,0.1605 -1.04328,0.1605 -1.44454,0.1605 -2.32732,0 -3.61136,-1.20378 -3.61136,-3.29034 l 0,-24.71773 c 0,-7.46347 -5.45716,-11.47609 -15.80971,-11.47609 -6.09918,0 -11.15508,1.76555 -13.96391,4.89539 -1.92606,2.16682 -2.72858,4.57439 -2.88909,8.74751 l 6.7412,0 c 0.56177,-5.13615 3.61136,-7.46347 9.87104,-7.46347 6.01893,0 9.38953,2.24707 9.38953,6.25969 l 0,1.76555 c 0,2.80883 -1.6853,4.01262 -6.98196,4.65463 -9.46978,1.20379 -10.91432,1.5248 -13.48239,2.56808 -4.8954,2.00631 -7.38322,5.77817 -7.38322,11.23533 0,7.62398 5.29665,12.43912 13.8034,12.43912 5.29666,0 9.55004,-1.84581 14.28493,-6.17943 0.48151,4.25337 2.56807,6.17943 6.9017,6.17943 1.36429,0 2.40757,-0.16051 4.57438,-0.72227 l 0,-5.0559 z m -11.71684,-9.30928 c 0,2.24707 -0.64202,3.61136 -2.64833,5.45716 -2.72858,2.48783 -6.01893,3.77187 -9.95129,3.77187 -5.21641,0 -8.266,-2.48783 -8.266,-6.7412 0,-4.41388 2.96934,-6.66095 10.1118,-7.70423 7.06221,-0.96303 8.50675,-1.28404 10.75382,-2.32732 l 0,7.54372 z"
         style="font-style:normal;font-variant:normal;font-weight:normal;font-stretch:normal;font-size:80.25236511px;line-height:100%;font-family:'Nimbus Sans L';text-align:start;writing-mode:lr-tb;text-anchor:start"
         id="path3430" />
      <path
         d="m 668.79774,426.04812 -6.7412,0 0,58.50397 6.7412,0 0,-58.50397 z"
         style="font-style:normal;font-variant:normal;font-weight:normal;font-stretch:normal;font-size:80.25236511px;line-height:100%;font-family:'Nimbus Sans L';text-align:start;writing-mode:lr-tb;text-anchor:start"
         id="path3432" />
      <path
         d="m 740.94461,457.90831 0,26.64378 7.46347,0 0,-58.50397 -7.46347,0 0,25.27949 -30.09464,0 0,-25.27949 -7.46347,0 0,58.50397 7.54372,0 0,-26.64378 30.01439,0 z"
         style="font-style:normal;font-variant:normal;font-weight:normal;font-stretch:normal;font-size:80.25236511px;line-height:100%;font-family:'Nimbus Sans L';text-align:start;writing-mode:lr-tb;text-anchor:start"
         id="path3434" />
      <path
         d="m 795.88989,465.77304 c 0,-6.42019 -0.48151,-10.2723 -1.6853,-13.40214 -2.72858,-6.90171 -9.14877,-11.07483 -17.0135,-11.07483 -11.71684,0 -19.26057,8.98826 -19.26057,22.79167 0,13.80341 7.30297,22.31016 19.10007,22.31016 9.63028,0 16.29123,-5.45716 17.97653,-14.60593 l -6.7412,0 c -1.84581,5.53741 -5.61767,8.4265 -10.99458,8.4265 -4.25337,0 -7.86473,-1.92606 -10.11179,-5.45717 -1.60505,-2.40757 -2.16682,-4.81514 -2.24707,-8.98826 l 30.97741,0 z m -30.81691,-5.45716 c 0.56177,-7.78448 5.29666,-12.84038 12.03786,-12.84038 6.58069,0 11.63659,5.45716 11.63659,12.35887 0,0.1605 0,0.321 -0.0802,0.48151 l -23.5942,0 z"
         style="font-style:normal;font-variant:normal;font-weight:normal;font-stretch:normal;font-size:80.25236511px;line-height:100%;font-family:'Nimbus Sans L';text-align:start;writing-mode:lr-tb;text-anchor:start"
         id="path3436" />
      <path
         d="m 804.92956,442.49985 0,42.05224 6.7412,0 0,-21.82864 c 0,-6.01893 1.5248,-9.95129 4.73489,-12.27861 2.08656,-1.5248 4.09287,-2.00631 8.74751,-2.08656 l 0,-6.82145 c -1.12353,-0.16051 -1.6853,-0.24076 -2.56808,-0.24076 -4.33362,0 -7.62397,2.56807 -11.47608,8.82776 l 0,-7.62398 -6.17944,0 z"
         style="font-style:normal;font-variant:normal;font-weight:normal;font-stretch:normal;font-size:80.25236511px;line-height:100%;font-family:'Nimbus Sans L';text-align:start;writing-mode:lr-tb;text-anchor:start"
         id="path3438" />
      <path
         d="m 831.7326,442.49985 0,42.05224 6.7412,0 0,-21.82864 c 0,-6.01893 1.5248,-9.95129 4.73489,-12.27861 2.08656,-1.5248 4.09287,-2.00631 8.74751,-2.08656 l 0,-6.82145 c -1.12353,-0.16051 -1.6853,-0.24076 -2.56808,-0.24076 -4.33362,0 -7.62397,2.56807 -11.47608,8.82776 l 0,-7.62398 -6.17944,0 z"
         style="font-style:normal;font-variant:normal;font-weight:normal;font-stretch:normal;font-size:80.25236511px;line-height:100%;font-family:'Nimbus Sans L';text-align:start;writing-mode:lr-tb;text-anchor:start"
         id="path3440" />
      <path
         d="m 865.03608,442.49985 -6.66094,0 0,42.05224 6.66094,0 0,-42.05224 z m 0,-16.45173 -6.74119,0 0,8.4265 6.74119,0 0,-8.4265 z"
         style="font-style:normal;font-variant:normal;font-weight:normal;font-stretch:normal;font-size:80.25236511px;line-height:100%;font-family:'Nimbus Sans L';text-align:start;writing-mode:lr-tb;text-anchor:start"
         id="path3442" />
      <path
         d="m 882.1825,426.04812 -6.66095,0 0,58.50397 6.66095,0 0,-16.37148 6.50044,-6.42019 14.20467,22.79167 8.26599,0 -17.17401,-27.52656 14.60593,-14.52568 -8.587,0 -17.81602,17.81603 0,-34.26776 z"
         style="font-style:normal;font-variant:normal;font-weight:normal;font-stretch:normal;font-size:80.25236511px;line-height:100%;font-family:'Nimbus Sans L';text-align:start;writing-mode:lr-tb;text-anchor:start"
         id="path3444" />
      <path
         d="m 932.82175,441.29607 c -11.7971,0 -18.93956,8.4265 -18.93956,22.55091 0,14.12442 7.06221,22.55092 19.01981,22.55092 11.7971,0 19.01981,-8.4265 19.01981,-22.22991 0,-14.52568 -6.98196,-22.87192 -19.10006,-22.87192 z m 0.0803,6.17943 c 7.54372,0 12.03785,6.17943 12.03785,16.61224 0,9.87104 -4.65463,16.13073 -12.03785,16.13073 -7.46347,0 -12.03786,-6.17944 -12.03786,-16.37149 0,-10.11179 4.57439,-16.37148 12.03786,-16.37148 z"
         style="font-style:normal;font-variant:normal;font-weight:normal;font-stretch:normal;font-size:80.25236511px;line-height:100%;font-family:'Nimbus Sans L';text-align:start;writing-mode:lr-tb;text-anchor:start"
         id="path3446" />
    </g>
    <g
       transform="scale(0.995612,1.004407)"
       style="font-style:normal;font-weight:normal;font-size:29.86910629px;line-height:100%;font-family:'Bitstream Vera Sans';display:inline;opacity:1;fill:#000000;fill-opacity:1;stroke:none;stroke-width:1px;stroke-linecap:butt;stroke-linejoin:miter;stroke-opacity:1"
       id="text5504">
      <path
         d="m 479.74157,504.75792 0,40.78105 c 0,7.80574 -5.65518,12.58477 -14.97429,12.58477 -4.30112,0 -7.80575,-1.03545 -10.59351,-3.02672 -2.86742,-2.23021 -4.22148,-5.17728 -4.22148,-9.55805 l 0,-40.78105 -7.40749,0 0,40.78105 c 0,11.78827 8.44295,19.11611 22.22248,19.11611 13.62023,0 22.38179,-7.48714 22.38179,-19.11611 l 0,-40.78105 -7.4075,0 z"
         style="font-style:normal;font-variant:normal;font-weight:normal;font-stretch:normal;font-size:79.65048218px;line-height:100%;font-family:'Nimbus Sans L';text-align:start;writing-mode:lr-tb;text-anchor:start"
         id="path3393" />
      <path
         d="m 498.90996,521.08627 0,41.73685 6.69064,0 0,-23.01899 c 0,-8.5226 4.46042,-14.09813 11.31037,-14.09813 5.25693,0 8.60225,3.18601 8.60225,8.204 l 0,28.91312 6.61099,0 0,-31.54159 c 0,-6.92959 -5.17728,-11.39002 -13.22198,-11.39002 -6.21274,0 -10.19526,2.38951 -13.85919,8.204 l 0,-7.00924 -6.13308,0 z"
         style="font-style:normal;font-variant:normal;font-weight:normal;font-stretch:normal;font-size:79.65048218px;line-height:100%;font-family:'Nimbus Sans L';text-align:start;writing-mode:lr-tb;text-anchor:start"
         id="path3395" />
      <path
         d="m 549.61868,521.08627 -6.61099,0 0,41.73685 6.61099,0 0,-41.73685 z m 0,-16.32835 -6.69064,0 0,8.3633 6.69064,0 0,-8.3633 z"
         style="font-style:normal;font-variant:normal;font-weight:normal;font-stretch:normal;font-size:79.65048218px;line-height:100%;font-family:'Nimbus Sans L';text-align:start;writing-mode:lr-tb;text-anchor:start"
         id="path3397" />
      <path
         d="m 559.70692,504.75792 0,58.0652 5.97378,0 0,-5.33658 c 3.18602,4.85868 7.4075,7.16854 13.22198,7.16854 10.99177,0 18.16031,-9.0005 18.16031,-22.85969 0,-13.54058 -6.84994,-21.90388 -17.8417,-21.90388 -5.73484,0 -9.79701,2.15056 -12.90338,6.84994 l 0,-21.98353 -6.61099,0 z m 18.23996,21.34633 c 7.40749,0 12.18652,6.45169 12.18652,16.408 0,9.4784 -4.93833,15.93009 -12.18652,15.93009 -7.00924,0 -11.62897,-6.37203 -11.62897,-16.16904 0,-9.79701 4.61973,-16.16905 11.62897,-16.16905 z"
         style="font-style:normal;font-variant:normal;font-weight:normal;font-stretch:normal;font-size:79.65048218px;line-height:100%;font-family:'Nimbus Sans L';text-align:start;writing-mode:lr-tb;text-anchor:start"
         id="path3399" />
      <path
         d="m 640.60319,544.18491 c 0,-6.37204 -0.4779,-10.19526 -1.67266,-13.30163 -2.70812,-6.84994 -9.08016,-10.99177 -16.8859,-10.99177 -11.62897,0 -19.11612,8.92085 -19.11612,22.62074 0,13.69988 7.2482,22.14283 18.95682,22.14283 9.55805,0 16.16904,-5.41623 17.8417,-14.49639 l -6.69064,0 c -1.83196,5.49589 -5.57553,8.3633 -10.91211,8.3633 -4.22148,0 -7.80575,-1.91161 -10.03596,-5.41623 -1.59301,-2.38951 -2.15057,-4.77903 -2.23022,-8.92085 l 30.74509,0 z m -30.58579,-5.41624 c 0.55756,-7.72609 5.25694,-12.74407 11.94758,-12.74407 6.53134,0 11.54932,5.41623 11.54932,12.26617 0,0.1593 0,0.3186 -0.0797,0.4779 l -23.41725,0 z"
         style="font-style:normal;font-variant:normal;font-weight:normal;font-stretch:normal;font-size:79.65048218px;line-height:100%;font-family:'Nimbus Sans L';text-align:start;writing-mode:lr-tb;text-anchor:start"
         id="path3401" />
      <path
         d="m 649.57506,521.08627 0,41.73685 6.69064,0 0,-21.66493 c 0,-5.97379 1.51336,-9.87666 4.69938,-12.18652 2.07091,-1.51336 4.06217,-1.99127 8.6819,-2.07092 l 0,-6.77029 c -1.1151,-0.1593 -1.67266,-0.23895 -2.54881,-0.23895 -4.30113,0 -7.5668,2.54882 -11.39002,8.76155 l 0,-7.56679 -6.13309,0 z"
         style="font-style:normal;font-variant:normal;font-weight:normal;font-stretch:normal;font-size:79.65048218px;line-height:100%;font-family:'Nimbus Sans L';text-align:start;writing-mode:lr-tb;text-anchor:start"
         id="path3403" />
      <path
         d="m 690.91242,521.08627 -6.84994,0 0,-11.46967 -6.61099,0 0,11.46967 -5.65519,0 0,5.41623 5.65519,0 0,31.54159 c 0,4.22148 2.86742,6.61099 8.0447,6.61099 1.59301,0 3.18602,-0.1593 5.41623,-0.55755 l 0,-5.57554 c -0.87615,0.23896 -1.91161,0.31861 -3.18602,0.31861 -2.86742,0 -3.66392,-0.79651 -3.66392,-3.74358 l 0,-28.59452 6.84994,0 0,-5.41623 z"
         style="font-style:normal;font-variant:normal;font-weight:normal;font-stretch:normal;font-size:79.65048218px;line-height:100%;font-family:'Nimbus Sans L';text-align:start;writing-mode:lr-tb;text-anchor:start"
         id="path3405" />
      <path
         d="m 727.65867,532.71524 c -0.0797,-8.204 -5.49588,-12.82373 -15.13359,-12.82373 -9.71736,0 -16.00975,5.01798 -16.00975,12.74408 0,6.53134 3.34532,9.63771 13.22198,12.02722 l 6.21274,1.51336 c 4.61973,1.11511 6.45169,2.78777 6.45169,5.81448 0,3.90288 -3.90288,6.53134 -9.71736,6.53134 -3.58427,0 -6.61099,-1.03545 -8.28365,-2.78776 -1.03546,-1.19476 -1.51336,-2.38952 -1.91161,-5.33659 l -7.00924,0 c 0.3186,9.63771 5.73483,14.25744 16.64695,14.25744 10.51386,0 17.2045,-5.17728 17.2045,-13.22198 0,-6.21274 -3.50462,-9.63771 -11.78827,-11.62897 l -6.37204,-1.51336 c -5.41623,-1.27441 -7.7261,-3.02672 -7.7261,-5.97378 0,-3.82323 3.42497,-6.29239 8.84121,-6.29239 5.33658,0 8.204,2.30986 8.3633,6.69064 l 7.00924,0 z"
         style="font-style:normal;font-variant:normal;font-weight:normal;font-stretch:normal;font-size:79.65048218px;line-height:100%;font-family:'Nimbus Sans L';text-align:start;writing-mode:lr-tb;text-anchor:start"
         id="path3407" />
      <path
         d="m 744.54459,521.08627 -6.61099,0 0,41.73685 6.61099,0 0,-41.73685 z m 0,-16.32835 -6.69064,0 0,8.3633 6.69064,0 0,-8.3633 z"
         style="font-style:normal;font-variant:normal;font-weight:normal;font-stretch:normal;font-size:79.65048218px;line-height:100%;font-family:'Nimbus Sans L';text-align:start;writing-mode:lr-tb;text-anchor:start"
         id="path3409" />
      <path
         d="m 770.56289,521.08627 -6.84994,0 0,-11.46967 -6.61099,0 0,11.46967 -5.65519,0 0,5.41623 5.65519,0 0,31.54159 c 0,4.22148 2.86741,6.61099 8.04469,6.61099 1.59301,0 3.18602,-0.1593 5.41624,-0.55755 l 0,-5.57554 c -0.87616,0.23896 -1.91161,0.31861 -3.18602,0.31861 -2.86742,0 -3.66392,-0.79651 -3.66392,-3.74358 l 0,-28.59452 6.84994,0 0,-5.41623 z"
         style="font-style:normal;font-variant:normal;font-weight:normal;font-stretch:normal;font-size:79.65048218px;line-height:100%;font-family:'Nimbus Sans L';text-align:start;writing-mode:lr-tb;text-anchor:start"
         id="path3411" />
      <path
         d="m 815.03525,558.92025 c -0.71686,0.1593 -1.03546,0.1593 -1.43371,0.1593 -2.30986,0 -3.58427,-1.19476 -3.58427,-3.26567 l 0,-24.53235 c 0,-7.4075 -5.41623,-11.39002 -15.69115,-11.39002 -6.05343,0 -11.07141,1.75231 -13.85918,4.85868 -1.91161,2.15056 -2.70812,4.54008 -2.86742,8.6819 l 6.69064,0 c 0.55756,-5.09763 3.58427,-7.40749 9.79701,-7.40749 5.97379,0 9.31911,2.23021 9.31911,6.21273 l 0,1.75232 c 0,2.78776 -1.67266,3.98252 -6.92959,4.61972 -9.39876,1.19476 -10.83247,1.51336 -13.38128,2.54882 -4.85868,1.99126 -7.32785,5.73483 -7.32785,11.15107 0,7.56679 5.25693,12.34582 13.69988,12.34582 5.25694,0 9.47841,-1.83196 14.17779,-6.13309 0.4779,4.22148 2.54882,6.13309 6.84994,6.13309 1.35406,0 2.38952,-0.1593 4.54008,-0.71685 l 0,-5.01798 z m -11.62897,-9.23946 c 0,2.23021 -0.63721,3.58427 -2.62847,5.41623 -2.70811,2.46917 -5.97378,3.74358 -9.87666,3.74358 -5.17728,0 -8.204,-2.46917 -8.204,-6.69064 0,-4.38078 2.94707,-6.61099 10.03596,-7.64645 7.00925,-0.95581 8.44296,-1.27441 10.67317,-2.30986 l 0,7.48714 z"
         style="font-style:normal;font-variant:normal;font-weight:normal;font-stretch:normal;font-size:79.65048218px;line-height:100%;font-family:'Nimbus Sans L';text-align:start;writing-mode:lr-tb;text-anchor:start"
         id="path3413" />
      <path
         d="m 836.99016,521.08627 -6.84994,0 0,-11.46967 -6.61099,0 0,11.46967 -5.65518,0 0,5.41623 5.65518,0 0,31.54159 c 0,4.22148 2.86742,6.61099 8.0447,6.61099 1.59301,0 3.18602,-0.1593 5.41623,-0.55755 l 0,-5.57554 c -0.87615,0.23896 -1.91161,0.31861 -3.18602,0.31861 -2.86741,0 -3.66392,-0.79651 -3.66392,-3.74358 l 0,-28.59452 6.84994,0 0,-5.41623 z"
         style="font-style:normal;font-variant:normal;font-weight:normal;font-stretch:normal;font-size:79.65048218px;line-height:100%;font-family:'Nimbus Sans L';text-align:start;writing-mode:lr-tb;text-anchor:start"
         id="path3415" />
      <path
         d="m 879.71018,544.18491 c 0,-6.37204 -0.4779,-10.19526 -1.67266,-13.30163 -2.70811,-6.84994 -9.08015,-10.99177 -16.8859,-10.99177 -11.62897,0 -19.11611,8.92085 -19.11611,22.62074 0,13.69988 7.24819,22.14283 18.95681,22.14283 9.55806,0 16.16905,-5.41623 17.84171,-14.49639 l -6.69064,0 c -1.83196,5.49589 -5.57553,8.3633 -10.91212,8.3633 -4.22147,0 -7.80574,-1.91161 -10.03596,-5.41623 -1.59301,-2.38951 -2.15056,-4.77903 -2.23021,-8.92085 l 30.74508,0 z m -30.58578,-5.41624 c 0.55755,-7.72609 5.25693,-12.74407 11.94757,-12.74407 6.53134,0 11.54932,5.41623 11.54932,12.26617 0,0.1593 0,0.3186 -0.0797,0.4779 l -23.41724,0 z"
         style="font-style:normal;font-variant:normal;font-weight:normal;font-stretch:normal;font-size:79.65048218px;line-height:100%;font-family:'Nimbus Sans L';text-align:start;writing-mode:lr-tb;text-anchor:start"
         id="path3417" />
      <path
         d="m 925.7992,558.92025 c -0.71686,0.1593 -1.03546,0.1593 -1.43371,0.1593 -2.30987,0 -3.58427,-1.19476 -3.58427,-3.26567 l 0,-24.53235 c 0,-7.4075 -5.41624,-11.39002 -15.69115,-11.39002 -6.05344,0 -11.07142,1.75231 -13.85918,4.85868 -1.91162,2.15056 -2.70812,4.54008 -2.86742,8.6819 l 6.69064,0 c 0.55755,-5.09763 3.58427,-7.40749 9.79701,-7.40749 5.97379,0 9.31911,2.23021 9.31911,6.21273 l 0,1.75232 c 0,2.78776 -1.67266,3.98252 -6.9296,4.61972 -9.39875,1.19476 -10.83246,1.51336 -13.38128,2.54882 -4.85868,1.99126 -7.32784,5.73483 -7.32784,11.15107 0,7.56679 5.25693,12.34582 13.69988,12.34582 5.25693,0 9.47841,-1.83196 14.17779,-6.13309 0.4779,4.22148 2.54881,6.13309 6.84994,6.13309 1.35406,0 2.38951,-0.1593 4.54008,-0.71685 l 0,-5.01798 z m -11.62897,-9.23946 c 0,2.23021 -0.63721,3.58427 -2.62847,5.41623 -2.70812,2.46917 -5.97379,3.74358 -9.87666,3.74358 -5.17728,0 -8.204,-2.46917 -8.204,-6.69064 0,-4.38078 2.94707,-6.61099 10.03596,-7.64645 7.00924,-0.95581 8.44295,-1.27441 10.67317,-2.30986 l 0,7.48714 z"
         style="font-style:normal;font-variant:normal;font-weight:normal;font-stretch:normal;font-size:79.65048218px;line-height:100%;font-family:'Nimbus Sans L';text-align:start;writing-mode:lr-tb;text-anchor:start"
         id="path3419" />
    </g>
    <g
       transform="scale(1.001894,0.99811)"
       style="font-style:normal;font-weight:normal;font-size:30.05744171px;line-height:100%;font-family:'Bitstream Vera Sans';display:inline;opacity:1;fill:#000000;fill-opacity:1;stroke:none;stroke-width:1px;stroke-linecap:butt;stroke-linejoin:miter;stroke-opacity:1"
       id="text5508">
      <path
         d="m -77.834081,425.05369 0,41.03819 c 0,7.85496 -5.690842,12.66413 -15.068709,12.66413 -4.328247,0 -7.85497,-1.04199 -10.66031,-3.04581 -2.8855,-2.24427 -4.24809,-5.20992 -4.24809,-9.61832 l 0,-41.03819 -7.45421,0 0,41.03819 c 0,11.8626 8.49619,19.23665 22.36261,19.23665 13.706113,0 22.522911,-7.53436 22.522911,-19.23665 l 0,-41.03819 -7.454202,0 z"
         style="font-style:normal;font-variant:normal;font-weight:normal;font-stretch:normal;font-size:80.15270996px;line-height:100%;font-family:'Nimbus Sans L';text-align:start;writing-mode:lr-tb;text-anchor:start"
         id="path3370" />
      <path
         d="m -58.544832,441.485 0,42.00002 6.732828,0 0,-23.16414 c 0,-8.57634 4.488552,-14.18703 11.381685,-14.18703 5.290079,0 8.656492,3.20611 8.656492,8.25573 l 0,29.09544 6.652675,0 0,-31.74048 c 0,-6.97328 -5.209926,-11.46183 -13.305349,-11.46183 -6.251912,0 -10.259547,2.40458 -13.946572,8.25572 l 0,-7.05343 -6.171759,0 z"
         style="font-style:normal;font-variant:normal;font-weight:normal;font-stretch:normal;font-size:80.15270996px;line-height:100%;font-family:'Nimbus Sans L';text-align:start;writing-mode:lr-tb;text-anchor:start"
         id="path3372" />
      <path
         d="m -7.516362,441.485 -6.652675,0 0,42.00002 6.652675,0 0,-42.00002 z m 0,-16.43131 -6.732828,0 0,8.41603 6.732828,0 0,-8.41603 z"
         style="font-style:normal;font-variant:normal;font-weight:normal;font-stretch:normal;font-size:80.15270996px;line-height:100%;font-family:'Nimbus Sans L';text-align:start;writing-mode:lr-tb;text-anchor:start"
         id="path3374" />
      <path
         d="m 21.150758,483.48502 16.110695,-42.00002 -7.534355,0 -11.862601,34.0649 -11.2213794,-34.0649 -7.53435478,0 14.74809818,42.00002 7.293897,0 z"
         style="font-style:normal;font-variant:normal;font-weight:normal;font-stretch:normal;font-size:80.15270996px;line-height:100%;font-family:'Nimbus Sans L';text-align:start;writing-mode:lr-tb;text-anchor:start"
         id="path3376" />
      <path
         d="m 79.501923,464.72928 c 0,-6.41222 -0.480916,-10.25955 -1.683207,-13.3855 -2.725192,-6.89313 -9.137409,-11.06107 -16.992374,-11.06107 -11.702296,0 -19.236651,8.9771 -19.236651,22.76336 0,13.78627 7.293897,22.28246 19.076345,22.28246 9.618326,0 16.271001,-5.45039 17.954207,-14.5878 l -6.732827,0 c -1.843512,5.53054 -5.61069,8.41604 -10.980921,8.41604 -4.248094,0 -7.854966,-1.92367 -10.099242,-5.45038 -1.603054,-2.40459 -2.164123,-4.80917 -2.244276,-8.97711 l 30.938946,0 z m -30.77864,-5.45038 c 0.561069,-7.77482 5.290079,-12.82444 12.022906,-12.82444 6.572522,0 11.622143,5.45039 11.622143,12.34352 0,0.16031 0,0.32061 -0.08015,0.48092 l -23.564896,0 z"
         style="font-style:normal;font-variant:normal;font-weight:normal;font-stretch:normal;font-size:80.15270996px;line-height:100%;font-family:'Nimbus Sans L';text-align:start;writing-mode:lr-tb;text-anchor:start"
         id="path3378" />
      <path
         d="m 88.530377,441.485 0,42.00002 6.732827,0 0,-21.80154 c 0,-6.01145 1.522902,-9.93894 4.72901,-12.26337 2.083966,-1.5229 4.087786,-2.00381 8.736646,-2.08397 l 0,-6.81298 c -1.12214,-0.1603 -1.68321,-0.24045 -2.56489,-0.24045 -4.32824,0 -7.614504,2.56488 -11.461835,8.81679 l 0,-7.6145 -6.171758,0 z"
         style="font-style:normal;font-variant:normal;font-weight:normal;font-stretch:normal;font-size:80.15270996px;line-height:100%;font-family:'Nimbus Sans L';text-align:start;writing-mode:lr-tb;text-anchor:start"
         id="path3380" />
      <path
         d="m 144.87649,453.18729 c -0.0802,-8.25573 -5.53054,-12.90458 -15.22902,-12.90458 -9.77863,0 -16.11069,5.04962 -16.11069,12.82443 0,6.57252 3.36641,9.69848 13.30535,12.10306 l 6.25191,1.5229 c 4.64886,1.12214 6.49237,2.80534 6.49237,5.85115 0,3.92748 -3.92748,6.57252 -9.77863,6.57252 -3.60687,0 -6.65268,-1.04199 -8.33588,-2.80535 -1.04199,-1.20229 -1.52291,-2.40458 -1.92367,-5.37023 l -7.05344,0 c 0.32061,9.69848 5.771,14.34734 16.75192,14.34734 10.58016,0 17.31298,-5.20993 17.31298,-13.30535 0,-6.25191 -3.52672,-9.69848 -11.8626,-11.7023 l -6.41221,-1.5229 c -5.45039,-1.28244 -7.77482,-3.0458 -7.77482,-6.01145 0,-3.84733 3.44657,-6.33207 8.89695,-6.33207 5.37024,0 8.25573,2.32443 8.41604,6.73283 l 7.05344,0 z"
         style="font-style:normal;font-variant:normal;font-weight:normal;font-stretch:normal;font-size:80.15270996px;line-height:100%;font-family:'Nimbus Sans L';text-align:start;writing-mode:lr-tb;text-anchor:start"
         id="path3382" />
      <path
         d="m 161.86885,441.485 -6.65268,0 0,42.00002 6.65268,0 0,-42.00002 z m 0,-16.43131 -6.73283,0 0,8.41603 6.73283,0 0,-8.41603 z"
         style="font-style:normal;font-variant:normal;font-weight:normal;font-stretch:normal;font-size:80.15270996px;line-height:100%;font-family:'Nimbus Sans L';text-align:start;writing-mode:lr-tb;text-anchor:start"
         id="path3384" />
      <path
         d="m 207.36803,425.05369 -6.65268,0 0,21.72138 c -2.80534,-4.24809 -7.29389,-6.49236 -12.90458,-6.49236 -10.90077,0 -18.03436,8.73664 -18.03436,22.12214 0,14.18703 6.97328,22.92368 18.27481,22.92368 5.771,0 9.77864,-2.16412 13.38551,-7.37405 l 0,5.53054 5.9313,0 0,-58.43133 z m -18.43513,21.48093 c 7.21375,0 11.78245,6.41221 11.78245,16.4313 0,9.69848 -4.64885,16.1107 -11.70229,16.1107 -7.37405,0 -12.26337,-6.49237 -12.26337,-16.271 0,-9.77863 4.88932,-16.271 12.18321,-16.271 z"
         style="font-style:normal;font-variant:normal;font-weight:normal;font-stretch:normal;font-size:80.15270996px;line-height:100%;font-family:'Nimbus Sans L';text-align:start;writing-mode:lr-tb;text-anchor:start"
         id="path3386" />
      <path
         d="m 255.19041,479.55753 c -0.72138,0.16031 -1.04199,0.16031 -1.44275,0.16031 -2.32443,0 -3.60687,-1.20229 -3.60687,-3.28626 l 0,-24.68704 c 0,-7.4542 -5.45039,-11.46183 -15.79009,-11.46183 -6.0916,0 -11.14122,1.76335 -13.94657,4.88931 -1.92366,2.16412 -2.72519,4.5687 -2.8855,8.73665 l 6.73283,0 c 0.56107,-5.12978 3.60687,-7.45421 9.85879,-7.45421 6.01145,0 9.37786,2.24428 9.37786,6.25192 l 0,1.76335 c 0,2.80535 -1.6832,4.00764 -6.97328,4.64886 -9.45802,1.20229 -10.90077,1.5229 -13.46566,2.56489 -4.88931,2.00382 -7.37405,5.77099 -7.37405,11.22138 0,7.61451 5.29008,12.42367 13.78627,12.42367 5.29008,0 9.53817,-1.84351 14.26718,-6.17176 0.48092,4.24809 2.56489,6.17176 6.89313,6.17176 1.3626,0 2.40458,-0.16031 4.56871,-0.72138 l 0,-5.04962 z m -11.7023,-9.29771 c 0,2.24427 -0.64122,3.60687 -2.64504,5.45038 -2.72519,2.48474 -6.01145,3.76718 -9.93893,3.76718 -5.20993,0 -8.25573,-2.48473 -8.25573,-6.73283 0,-4.4084 2.96565,-6.65267 10.09924,-7.69466 7.05344,-0.96183 8.49619,-1.28244 10.74046,-2.32443 l 0,7.53436 z"
         style="font-style:normal;font-variant:normal;font-weight:normal;font-stretch:normal;font-size:80.15270996px;line-height:100%;font-family:'Nimbus Sans L';text-align:start;writing-mode:lr-tb;text-anchor:start"
         id="path3388" />
      <path
         d="m 296.60054,425.05369 -6.65267,0 0,21.72138 c -2.80535,-4.24809 -7.2939,-6.49236 -12.90459,-6.49236 -10.90077,0 -18.03436,8.73664 -18.03436,22.12214 0,14.18703 6.97329,22.92368 18.27482,22.92368 5.77099,0 9.77863,-2.16412 13.3855,-7.37405 l 0,5.53054 5.9313,0 0,-58.43133 z m -18.43512,21.48093 c 7.21374,0 11.78245,6.41221 11.78245,16.4313 0,9.69848 -4.64886,16.1107 -11.7023,16.1107 -7.37405,0 -12.26336,-6.49237 -12.26336,-16.271 0,-9.77863 4.88931,-16.271 12.18321,-16.271 z"
         style="font-style:normal;font-variant:normal;font-weight:normal;font-stretch:normal;font-size:80.15270996px;line-height:100%;font-family:'Nimbus Sans L';text-align:start;writing-mode:lr-tb;text-anchor:start"
         id="path3390" />
    </g>
    <g
       transform="scale(0.992168,1.007894)"
       style="font-style:normal;font-weight:normal;font-size:29.76571465px;line-height:100%;font-family:'Bitstream Vera Sans';display:inline;opacity:1;fill:#000000;fill-opacity:1;stroke:none;stroke-width:1px;stroke-linecap:butt;stroke-linejoin:miter;stroke-opacity:1"
       id="text5512">
      <path
         d="m -183.52995,503.46824 -6.58811,0 0,21.51057 c -2.77811,-4.20686 -7.2231,-6.42936 -12.77934,-6.42936 -10.79497,0 -17.85932,8.65185 -17.85932,21.90744 0,14.04934 6.9056,22.70119 18.09745,22.70119 5.71498,0 9.68372,-2.14312 13.25559,-7.30248 l 0,5.47686 5.87373,0 0,-57.86422 z m -18.2562,21.27245 c 7.14373,0 11.66809,6.34998 11.66809,16.27183 0,9.60434 -4.60373,15.95433 -11.58871,15.95433 -7.30248,0 -12.14435,-6.42936 -12.14435,-16.11308 0,-9.68373 4.84187,-16.11308 12.06497,-16.11308 z"
         style="font-style:normal;font-variant:normal;font-weight:normal;font-stretch:normal;font-size:79.37477875px;line-height:100%;font-family:'Nimbus Sans L';text-align:start;writing-mode:lr-tb;text-anchor:start"
         id="path3345" />
      <path
         d="m -137.91798,542.75876 c 0,-6.34998 -0.47624,-10.15997 -1.66687,-13.25559 -2.69874,-6.82623 -9.04872,-10.95372 -16.82745,-10.95372 -11.58872,0 -19.04995,8.88998 -19.04995,22.54244 0,13.65246 7.22311,22.06619 18.8912,22.06619 9.52497,0 16.11308,-5.39749 17.77995,-14.44621 l -6.66748,0 c -1.82562,5.47686 -5.55623,8.33435 -10.87434,8.33435 -4.20687,0 -7.77873,-1.90499 -10.00123,-5.39748 -1.58749,-2.38125 -2.14312,-4.76249 -2.22249,-8.88998 l 30.63866,0 z m -30.47991,-5.39748 c 0.55562,-7.69936 5.23873,-12.69997 11.90622,-12.69997 6.50873,0 11.50934,5.39749 11.50934,12.22372 0,0.15875 0,0.3175 -0.0794,0.47625 l -23.33618,0 z"
         style="font-style:normal;font-variant:normal;font-weight:normal;font-stretch:normal;font-size:79.37477875px;line-height:100%;font-family:'Nimbus Sans L';text-align:start;writing-mode:lr-tb;text-anchor:start"
         id="path3347" />
      <path
         d="m -122.38904,503.46824 -6.66749,0 0,57.86422 6.66749,0 0,-57.86422 z"
         style="font-style:normal;font-variant:normal;font-weight:normal;font-stretch:normal;font-size:79.37477875px;line-height:100%;font-family:'Nimbus Sans L';text-align:start;writing-mode:lr-tb;text-anchor:start"
         id="path3349" />
      <path
         d="m -80.161658,536.80565 18.176825,0 c 4.524362,0 8.096227,-1.34937 11.191844,-4.12749 3.49249,-3.17499 5.000611,-6.9056 5.000611,-12.22371 0,-10.87435 -6.429357,-16.98621 -17.859326,-16.98621 l -23.891808,0 0,57.86422 7.381854,0 0,-24.52681 z m 0,-6.50873 0,-20.31994 15.398708,0 c 7.064355,0 11.271218,3.80999 11.271218,10.15997 0,6.34998 -4.206863,10.15997 -11.271218,10.15997 l -15.398708,0 z"
         style="font-style:normal;font-variant:normal;font-weight:normal;font-stretch:normal;font-size:79.37477875px;line-height:100%;font-family:'Nimbus Sans L';text-align:start;writing-mode:lr-tb;text-anchor:start"
         id="path3351" />
      <path
         d="m 0.71875675,557.44309 c -0.71437301,0.15875 -1.03187212,0.15875 -1.42874602,0.15875 -2.30186853,0 -3.57186503,-1.19062 -3.57186503,-3.25436 l 0,-24.44743 c 0,-7.38186 -5.397485,-11.3506 -15.6368317,-11.3506 -6.032483,0 -11.033094,1.74625 -13.811211,4.84186 -1.904995,2.14312 -2.698743,4.52437 -2.857492,8.65186 l 6.667481,0 c 0.555624,-5.07999 3.571865,-7.38186 9.763098,-7.38186 5.953108,0 9.286849,2.22249 9.286849,6.19123 l 0,1.74625 c 0,2.77812 -1.66687,3.96874 -6.905606,4.60374 -9.366224,1.19062 -10.79497,1.50812 -13.334963,2.53999 -4.841861,1.98437 -7.302479,5.71498 -7.302479,11.11247 0,7.5406 5.238735,12.30309 13.652462,12.30309 5.238735,0 9.445598,-1.82562 14.12871,-6.11186 0.476249,4.20686 2.5399933,6.11186 6.8262314,6.11186 1.3493712,0 2.3812433,-0.15875 4.52436235,-0.71437 l 0,-5.00062 z M -10.869961,548.23562 c 0,2.22249 -0.634998,3.57187 -2.619368,5.39748 -2.698742,2.46062 -5.953108,3.73062 -9.842472,3.73062 -5.159361,0 -8.175602,-2.46062 -8.175602,-6.66748 0,-4.36561 2.936866,-6.58811 10.001222,-7.61998 6.98498,-0.9525 8.413726,-1.27 10.63622,-2.30187 l 0,7.46123 z"
         style="font-style:normal;font-variant:normal;font-weight:normal;font-stretch:normal;font-size:79.37477875px;line-height:100%;font-family:'Nimbus Sans L';text-align:start;writing-mode:lr-tb;text-anchor:start"
         id="path3353" />
      <path
         d="m 16.485813,519.74007 -6.5881061,0 0,41.59239 6.5881061,0 0,-41.59239 z m -1.269996,-17.14495 -7.6199787,11.74747 4.7624867,0 11.826842,-11.74747 -8.96935,0 z"
         style="font-style:normal;font-variant:normal;font-weight:normal;font-stretch:normal;font-size:79.37477875px;line-height:100%;font-family:'Nimbus Sans L';text-align:start;writing-mode:lr-tb;text-anchor:start"
         id="path3355" />
      <path
         d="m 59.21673,531.32879 c -0.07937,-8.1756 -5.47686,-12.77934 -15.081208,-12.77934 -9.683723,0 -15.954331,5.00061 -15.954331,12.69997 0,6.50873 3.333741,9.60435 13.176214,11.98559 l 6.191232,1.50812 c 4.603738,1.11125 6.429357,2.77812 6.429357,5.79436 0,3.88936 -3.889364,6.50873 -9.683723,6.50873 -3.571865,0 -6.588106,-1.03187 -8.254977,-2.77812 -1.031872,-1.19062 -1.50812,-2.38124 -1.904994,-5.31811 l -6.984981,0 c 0.317499,9.60435 5.714984,14.20809 16.589329,14.20809 10.477471,0 17.144952,-5.15936 17.144952,-13.17621 0,-6.19124 -3.49249,-9.60435 -11.747467,-11.58872 l -6.349982,-1.50812 c -5.397485,-1.27 -7.699354,-3.01624 -7.699354,-5.95311 0,-3.80999 3.413116,-6.27061 8.810601,-6.27061 5.31811,0 8.175602,2.30187 8.334351,6.66748 l 6.984981,0 z"
         style="font-style:normal;font-variant:normal;font-weight:normal;font-stretch:normal;font-size:79.37477875px;line-height:100%;font-family:'Nimbus Sans L';text-align:start;writing-mode:lr-tb;text-anchor:start"
         id="path3357" />
      <path
         d="m 117.26698,561.33246 20.08182,-57.86422 -7.8581,0 -16.03371,48.97424 -16.9862,-48.97424 -7.937478,0 20.796188,57.86422 7.93748,0 z"
         style="font-style:normal;font-variant:normal;font-weight:normal;font-stretch:normal;font-size:79.37477875px;line-height:100%;font-family:'Nimbus Sans L';text-align:start;writing-mode:lr-tb;text-anchor:start"
         id="path3359" />
      <path
         d="m 181.63744,557.44309 c -0.71437,0.15875 -1.03187,0.15875 -1.42874,0.15875 -2.30187,0 -3.57187,-1.19062 -3.57187,-3.25436 l 0,-24.44743 c 0,-7.38186 -5.39748,-11.3506 -15.63683,-11.3506 -6.03248,0 -11.03309,1.74625 -13.81121,4.84186 -1.905,2.14312 -2.69874,4.52437 -2.85749,8.65186 l 6.66748,0 c 0.55562,-5.07999 3.57186,-7.38186 9.7631,-7.38186 5.9531,0 9.28684,2.22249 9.28684,6.19123 l 0,1.74625 c 0,2.77812 -1.66687,3.96874 -6.9056,4.60374 -9.36622,1.19062 -10.79497,1.50812 -13.33496,2.53999 -4.84187,1.98437 -7.30248,5.71498 -7.30248,11.11247 0,7.5406 5.23873,12.30309 13.65246,12.30309 5.23873,0 9.4456,-1.82562 14.12871,-6.11186 0.47625,4.20686 2.53999,6.11186 6.82623,6.11186 1.34937,0 2.38124,-0.15875 4.52436,-0.71437 l 0,-5.00062 z m -11.58872,-9.20747 c 0,2.22249 -0.63499,3.57187 -2.61936,5.39748 -2.69875,2.46062 -5.95311,3.73062 -9.84248,3.73062 -5.15936,0 -8.1756,-2.46062 -8.1756,-6.66748 0,-4.36561 2.93687,-6.58811 10.00122,-7.61998 6.98499,-0.9525 8.41373,-1.27 10.63622,-2.30187 l 0,7.46123 z"
         style="font-style:normal;font-variant:normal;font-weight:normal;font-stretch:normal;font-size:79.37477875px;line-height:100%;font-family:'Nimbus Sans L';text-align:start;writing-mode:lr-tb;text-anchor:start"
         id="path3361" />
      <path
         d="m 218.12132,531.32879 c -0.0794,-8.1756 -5.47686,-12.77934 -15.08121,-12.77934 -9.68372,0 -15.95433,5.00061 -15.95433,12.69997 0,6.50873 3.33374,9.60435 13.17621,11.98559 l 6.19123,1.50812 c 4.60374,1.11125 6.42936,2.77812 6.42936,5.79436 0,3.88936 -3.88936,6.50873 -9.68372,6.50873 -3.57187,0 -6.58811,-1.03187 -8.25498,-2.77812 -1.03187,-1.19062 -1.50812,-2.38124 -1.90499,-5.31811 l -6.98498,0 c 0.3175,9.60435 5.71498,14.20809 16.58932,14.20809 10.47748,0 17.14496,-5.15936 17.14496,-13.17621 0,-6.19124 -3.49249,-9.60435 -11.74747,-11.58872 l -6.34998,-1.50812 c -5.39749,-1.27 -7.69936,-3.01624 -7.69936,-5.95311 0,-3.80999 3.41312,-6.27061 8.8106,-6.27061 5.31811,0 8.17561,2.30187 8.33436,6.66748 l 6.98498,0 z"
         style="font-style:normal;font-variant:normal;font-weight:normal;font-stretch:normal;font-size:79.37477875px;line-height:100%;font-family:'Nimbus Sans L';text-align:start;writing-mode:lr-tb;text-anchor:start"
         id="path3363" />
      <path
         d="m 260.42806,533.71004 c -0.3175,-4.04812 -1.19062,-6.66749 -2.77811,-8.96935 -2.8575,-3.88937 -7.85811,-6.19124 -13.65247,-6.19124 -11.19184,0 -18.49432,8.88998 -18.49432,22.70119 0,13.41434 7.14373,21.90744 18.41495,21.90744 9.92185,0 16.19245,-5.95311 16.9862,-16.11308 l -6.66748,0 c -1.11125,6.66748 -4.52436,10.00122 -10.15997,10.00122 -7.30248,0 -11.66809,-5.95311 -11.66809,-15.79558 0,-10.3981 4.28623,-16.58933 11.50934,-16.58933 5.55623,0 9.04872,3.25437 9.84247,9.04873 l 6.66748,0 z"
         style="font-style:normal;font-variant:normal;font-weight:normal;font-stretch:normal;font-size:79.37477875px;line-height:100%;font-family:'Nimbus Sans L';text-align:start;writing-mode:lr-tb;text-anchor:start"
         id="path3365" />
      <path
         d="m 284.31989,518.54945 c -11.66809,0 -18.73245,8.33435 -18.73245,22.30432 0,13.96996 6.98498,22.30431 18.81182,22.30431 11.6681,0 18.81183,-8.33435 18.81183,-21.98682 0,-14.36683 -6.90561,-22.62181 -18.8912,-22.62181 z m 0.0794,6.11186 c 7.46123,0 11.90622,6.11186 11.90622,16.43058 0,9.7631 -4.60374,15.95433 -11.90622,15.95433 -7.38185,0 -11.90621,-6.11186 -11.90621,-16.19245 0,-10.00123 4.52436,-16.19246 11.90621,-16.19246 z"
         style="font-style:normal;font-variant:normal;font-weight:normal;font-stretch:normal;font-size:79.37477875px;line-height:100%;font-family:'Nimbus Sans L';text-align:start;writing-mode:lr-tb;text-anchor:start"
         id="path3367" />
    </g>
  </g>
</svg>
