<?xml version="1.0" encoding="UTF-8" standalone="no"?>
<svg
   xmlns:dc="http://purl.org/dc/elements/1.1/"
   xmlns:cc="http://creativecommons.org/ns#"
   xmlns:rdf="http://www.w3.org/1999/02/22-rdf-syntax-ns#"
   xmlns:svg="http://www.w3.org/2000/svg"
   xmlns="http://www.w3.org/2000/svg"
   xmlns:sodipodi="http://sodipodi.sourceforge.net/DTD/sodipodi-0.dtd"
   xmlns:inkscape="http://www.inkscape.org/namespaces/inkscape"
   height="595.29999"
   width="841.90002"
   xml:space="preserve"
   viewBox="0 0 841.90004 595.29997"
   y="0px"
   x="0px"
   id="Capa_1"
   version="1.1"
   inkscape:version="0.91 r13725"
   sodipodi:docname="EUI.svg"><sodipodi:namedview
     pagecolor="#ffffff"
     bordercolor="#666666"
     borderopacity="1"
     objecttolerance="10"
     gridtolerance="10"
     guidetolerance="10"
     inkscape:pageopacity="0"
     inkscape:pageshadow="2"
     inkscape:window-width="1280"
     inkscape:window-height="725"
     id="namedview45"
     showgrid="false"
     inkscape:zoom="0.39643878"
     inkscape:cx="332.66399"
     inkscape:cy="297.64999"
     inkscape:window-x="0"
     inkscape:window-y="0"
     inkscape:window-maximized="1"
     inkscape:current-layer="Capa_1" /><metadata
     id="metadata541"><rdf:RDF><cc:Work
         rdf:about=""><dc:format>image/svg+xml</dc:format><dc:type
           rdf:resource="http://purl.org/dc/dcmitype/StillImage" /><dc:title></dc:title></cc:Work></rdf:RDF></metadata><defs
     id="defs539" /><style
     id="style3"
     type="text/css">
	.st0{fill:#FFFFFF;}
	.st1{fill:#0E5C2B;}
	.st2{fill:#FFFFFF;stroke:#000000;stroke-miterlimit:10;}
	.st3{fill:none;}
	.st4{fill:#D03616;}
	.st5{fill:#32A437;stroke:#000000;stroke-width:4;stroke-miterlimit:10;}
	.st6{opacity:0.65;fill:#D03616;}
	.st7{font-family:'LinuxBiolinumG';}
	.st8{font-size:79.7829px;}
	.st9{font-family:'SansSerif';}
	.st10{font-size:51.9164px;}
	.st11{font-family:'DDayStencil';}
	.st12{font-size:107.8225px;}
	.st13{font-family:'Arial-BoldMT';}
	.st14{font-size:6.8816px;}
	.st15{font-family:'FreestyleScript-Regular';}
	.st16{font-size:30.948px;}
	.st17{font-family:'InformalRoman-Regular';}
	.st18{font-family:'Georgia-BoldItalic';}
</style><g
     id="text283"
     style="font-size:54.94857025px;fill:#00578c;fill-opacity:1"
     transform="matrix(1.1376162,0,0,1.2350073,697.61553,-59.811977)"><path
       inkscape:connector-curvature="0"
       id="path3412"
       style="font-size:31.51117325px;font-family:Arial-BoldMT;fill:#00578c;fill-opacity:1"
       d="m -219.32393,395.36283 3.10803,0 0,22.97176 -3.10803,0 0,-22.97176 z" /><path
       inkscape:connector-curvature="0"
       id="path3414"
       style="font-size:31.51117325px;font-family:Arial-BoldMT;fill:#00578c;fill-opacity:1"
       d="m -195.82903,407.93345 0,10.40114 -2.83108,0 0,-10.30883 q 0,-2.44642 -0.95395,-3.66194 -0.95395,-1.21552 -2.86186,-1.21552 -2.29256,0 -3.61578,1.4617 -1.32322,1.4617 -1.32322,3.98506 l 0,9.73953 -2.84647,0 0,-17.23267 2.84647,0 0,2.67722 q 1.01549,-1.55402 2.38488,-2.32333 1.38476,-0.76932 3.18496,-0.76932 2.96956,0 4.49281,1.84636 1.52324,1.83097 1.52324,5.4006 z" /><path
       inkscape:connector-curvature="0"
       id="path3416"
       style="font-size:31.51117325px;font-family:Arial-BoldMT;fill:#00578c;fill-opacity:1"
       d="m -178.81176,409.51824 q 0,-3.07727 -1.27707,-4.76976 -1.26168,-1.6925 -3.55424,-1.6925 -2.27717,0 -3.55424,1.6925 -1.26167,1.69249 -1.26167,4.76976 0,3.06187 1.26167,4.75437 1.27707,1.69249 3.55424,1.69249 2.29256,0 3.55424,-1.69249 1.27707,-1.6925 1.27707,-4.75437 z m 2.83108,6.67766 q 0,4.40048 -1.95406,6.53918 -1.95407,2.15408 -5.98528,2.15408 -1.49247,0 -2.8157,-0.23079 -1.32322,-0.21541 -2.56951,-0.677 l 0,-2.75415 q 1.24629,0.677 2.46181,1.00011 1.21552,0.32312 2.4772,0.32312 2.78492,0 4.16969,-1.4617 1.38477,-1.44632 1.38477,-4.3851 l 0,-1.40016 q -0.87702,1.52325 -2.24641,2.27718 -1.36938,0.75392 -3.27728,0.75392 -3.16958,0 -5.10826,-2.41565 -1.93867,-2.41565 -1.93867,-6.4007 0,-4.00045 1.93867,-6.4161 1.93868,-2.41565 5.10826,-2.41565 1.9079,0 3.27728,0.75393 1.36939,0.75393 2.24641,2.27718 l 0,-2.61568 2.83108,0 0,15.09398 z" /><path
       inkscape:connector-curvature="0"
       id="path3418"
       style="font-size:31.51117325px;font-family:Arial-BoldMT;fill:#00578c;fill-opacity:1"
       d="m -155.40918,409.01049 0,1.38477 -13.01682,0 q 0.18463,2.9234 1.75404,4.46203 1.58479,1.52324 4.40048,1.52324 1.63095,0 3.1542,-0.40004 1.53863,-0.40005 3.04649,-1.20013 l 0,2.67721 q -1.52325,0.64623 -3.12342,0.98473 -1.60018,0.3385 -3.24652,0.3385 -4.12353,0 -6.53918,-2.40027 -2.40026,-2.40026 -2.40026,-6.49302 0,-4.23124 2.27717,-6.70844 2.29256,-2.49258 6.16991,-2.49258 3.47731,0 5.49292,2.2464 2.03099,2.23102 2.03099,6.0776 z m -2.83108,-0.83086 q -0.0308,-2.32334 -1.30784,-3.70811 -1.26168,-1.38476 -3.35421,-1.38476 -2.3695,0 -3.80042,1.33861 -1.41555,1.33861 -1.63095,3.76964 l 10.09342,-0.0154 z" /><path
       inkscape:connector-curvature="0"
       id="path3420"
       style="font-size:31.51117325px;font-family:Arial-BoldMT;fill:#00578c;fill-opacity:1"
       d="m -136.43785,407.93345 0,10.40114 -2.83108,0 0,-10.30883 q 0,-2.44642 -0.95396,-3.66194 -0.95395,-1.21552 -2.86185,-1.21552 -2.29256,0 -3.61578,1.4617 -1.32323,1.4617 -1.32323,3.98506 l 0,9.73953 -2.84647,0 0,-17.23267 2.84647,0 0,2.67722 q 1.0155,-1.55402 2.38488,-2.32333 1.38477,-0.76932 3.18497,-0.76932 2.96956,0 4.4928,1.84636 1.52325,1.83097 1.52325,5.4006 z" /><path
       inkscape:connector-curvature="0"
       id="path3422"
       style="font-size:31.51117325px;font-family:Arial-BoldMT;fill:#00578c;fill-opacity:1"
       d="m -130.76031,401.10192 2.83108,0 0,17.23267 -2.83108,0 0,-17.23267 z m 0,-6.70843 2.83108,0 0,3.58501 -2.83108,0 0,-3.58501 z" /><path
       inkscape:connector-curvature="0"
       id="path3424"
       style="font-size:31.51117325px;font-family:Arial-BoldMT;fill:#00578c;fill-opacity:1"
       d="m -114.18924,409.6721 q -3.43115,0 -4.75437,0.7847 -1.32322,0.7847 -1.32322,2.67722 0,1.50786 0.98472,2.40027 1.00011,0.87702 2.70799,0.87702 2.35411,0 3.76965,-1.66173 1.43093,-1.67711 1.43093,-4.44664 l 0,-0.63084 -2.8157,0 z m 5.64678,-1.16936 0,9.83185 -2.83108,0 0,-2.61567 q -0.96934,1.56941 -2.41566,2.32333 -1.44631,0.73855 -3.53885,0.73855 -2.64644,0 -4.21585,-1.47709 -1.55402,-1.49247 -1.55402,-3.98505 0,-2.90802 1.93868,-4.3851 1.95406,-1.47709 5.81603,-1.47709 l 3.96967,0 0,-0.27695 q 0,-1.95407 -1.29245,-3.01572 -1.27707,-1.07704 -3.6004,-1.07704 -1.47709,0 -2.87724,0.35388 -1.40016,0.35389 -2.69261,1.06166 l 0,-2.61568 q 1.55402,-0.60006 3.01572,-0.8924 1.4617,-0.30773 2.84647,-0.30773 3.73887,0 5.58523,1.93868 1.84636,1.93867 1.84636,5.87757 z" /><path
       inkscape:connector-curvature="0"
       id="path3426"
       style="font-size:31.51117325px;font-family:Arial-BoldMT;fill:#00578c;fill-opacity:1"
       d="m -92.709945,403.74837 q -0.476976,-0.27696 -1.046269,-0.40005 -0.553908,-0.13847 -1.230906,-0.13847 -2.400265,0 -3.692715,1.5694 -1.277064,1.55402 -1.277064,4.47742 l 0,9.07792 -2.846471,0 0,-17.23267 2.846471,0 0,2.67722 q 0.892406,-1.5694 2.323333,-2.32333 1.430928,-0.76932 3.477307,-0.76932 0.29234,0 0.646226,0.0462 0.353885,0.0308 0.784702,0.1077 l 0.01539,2.90802 z" /><path
       inkscape:connector-curvature="0"
       id="path3428"
       style="font-size:31.51117325px;font-family:Arial-BoldMT;fill:#00578c;fill-opacity:1"
       d="m -89.70961,401.10192 2.831082,0 0,17.23267 -2.831082,0 0,-17.23267 z m 0,-6.70843 2.831082,0 0,3.58501 -2.831082,0 0,-3.58501 z" /><path
       inkscape:connector-curvature="0"
       id="path3430"
       style="font-size:31.51117325px;font-family:Arial-BoldMT;fill:#00578c;fill-opacity:1"
       d="m -78.169875,396.20907 0,4.89285 5.831414,0 0,2.20024 -5.831414,0 0,9.35488 q 0,2.10793 0.569294,2.708 0.58468,0.60006 2.354106,0.60006 l 2.908014,0 0,2.36949 -2.908014,0 q -3.277285,0 -4.523577,-1.21551 -1.246291,-1.23091 -1.246291,-4.46204 l 0,-9.35488 -2.077153,0 0,-2.20024 2.077153,0 0,-4.89285 2.846468,0 z" /><path
       inkscape:connector-curvature="0"
       id="path3432"
       style="font-size:31.51117325px;font-family:Arial-BoldMT;fill:#00578c;fill-opacity:1"
       d="m -69.830499,401.10192 13.447639,0 0,2.5849 -10.64733,12.38599 10.64733,0 0,2.26178 -13.832297,0 0,-2.5849 10.64733,-12.38598 -10.262672,0 0,-2.26179 z" /><path
       inkscape:connector-curvature="0"
       id="path3434"
       style="font-size:31.51117325px;font-family:Arial-BoldMT;fill:#00578c;fill-opacity:1"
       d="m -44.21228,409.6721 q -3.431149,0 -4.754372,0.7847 -1.323223,0.7847 -1.323223,2.67722 0,1.50786 0.984724,2.40027 1.000111,0.87702 2.707992,0.87702 2.354106,0 3.769647,-1.66173 1.430927,-1.67711 1.430927,-4.44664 l 0,-0.63084 -2.815695,0 z m 5.646777,-1.16936 0,9.83185 -2.831082,0 0,-2.61567 q -0.969338,1.56941 -2.415651,2.32333 -1.446314,0.73855 -3.538853,0.73855 -2.646446,0 -4.21585,-1.47709 -1.554018,-1.49247 -1.554018,-3.98505 0,-2.90802 1.938676,-4.3851 1.954062,-1.47709 5.816027,-1.47709 l 3.969669,0 0,-0.27695 q 0,-1.95407 -1.29245,-3.01572 -1.277064,-1.07704 -3.600398,-1.07704 -1.477086,0 -2.877241,0.35388 -1.400154,0.35389 -2.692605,1.06166 l 0,-2.61568 q 1.554018,-0.60006 3.015718,-0.8924 1.4617,-0.30773 2.846468,-0.30773 3.738875,0 5.585232,1.93868 1.846358,1.93867 1.846358,5.87757 z" /><path
       inkscape:connector-curvature="0"
       id="path3436"
       style="font-size:31.51117325px;font-family:Arial-BoldMT;fill:#00578c;fill-opacity:1"
       d="m -32.826408,394.39349 2.846468,0 0,14.14002 8.447087,-7.43159 3.615784,0 -9.139471,8.06243 9.524129,9.17024 -3.692716,0 -8.754813,-8.41631 0,8.41631 -2.846468,0 0,-23.9411 z" /><path
       inkscape:connector-curvature="0"
       id="path3438"
       style="font-size:31.51117325px;font-family:Arial-BoldMT;fill:#00578c;fill-opacity:1"
       d="m -8.8699161,403.08676 q -2.2771749,0 -3.6003979,1.78481 -1.323223,1.76943 -1.323223,4.86207 0,3.09265 1.307837,4.87747 1.323223,1.76942 3.6157839,1.76942 2.2617883,0 3.5850114,-1.78481 1.3232231,-1.78481 1.3232231,-4.86208 0,-3.06187 -1.3232231,-4.84668 -1.3232231,-1.8002 -3.5850114,-1.8002 z m 0,-2.40027 q 3.6927156,0 5.8006408,2.40027 2.10792517,2.40026 2.10792517,6.64688 0,4.23124 -2.10792517,6.64689 -2.1079252,2.40027 -5.8006408,2.40027 -3.7081019,0 -5.8160269,-2.40027 -2.092539,-2.41565 -2.092539,-6.64689 0,-4.24662 2.092539,-6.64688 2.107925,-2.40027 5.8160269,-2.40027 z" /><path
       inkscape:connector-curvature="0"
       id="path3440"
       style="font-size:31.51117325px;font-family:Arial-BoldMT;fill:#00578c;fill-opacity:1"
       d="m -219.67782,433.36893 3.12343,0 0,13.95539 q 0,3.69271 1.33861,5.32366 1.3386,1.61557 4.33894,1.61557 2.98494,0 4.32355,-1.61557 1.33861,-1.63095 1.33861,-5.32366 l 0,-13.95539 3.12342,0 0,14.34005 q 0,4.4928 -2.23101,6.78536 -2.21563,2.29256 -6.55457,2.29256 -4.35433,0 -6.58535,-2.29256 -2.21563,-2.29256 -2.21563,-6.78536 l 0,-14.34005 z" /><path
       inkscape:connector-curvature="0"
       id="path3442"
       style="font-size:31.51117325px;font-family:Arial-BoldMT;fill:#00578c;fill-opacity:1"
       d="m -182.04289,445.93955 0,10.40115 -2.83108,0 0,-10.30883 q 0,-2.44643 -0.95395,-3.66195 -0.95395,-1.21551 -2.86186,-1.21551 -2.29256,0 -3.61578,1.4617 -1.32322,1.4617 -1.32322,3.98505 l 0,9.73954 -2.84647,0 0,-17.23267 2.84647,0 0,2.67721 q 1.01549,-1.55401 2.38488,-2.32333 1.38476,-0.76932 3.18496,-0.76932 2.96956,0 4.49281,1.84636 1.52324,1.83097 1.52324,5.4006 z" /><path
       inkscape:connector-curvature="0"
       id="path3444"
       style="font-size:31.51117325px;font-family:Arial-BoldMT;fill:#00578c;fill-opacity:1"
       d="m -176.36534,439.10803 2.83108,0 0,17.23267 -2.83108,0 0,-17.23267 z m 0,-6.70844 2.83108,0 0,3.58501 -2.83108,0 0,-3.58501 z" /><path
       inkscape:connector-curvature="0"
       id="path3446"
       style="font-size:31.51117325px;font-family:Arial-BoldMT;fill:#00578c;fill-opacity:1"
       d="m -155.25531,447.73975 q 0,-3.12342 -1.29245,-4.89285 -1.27707,-1.78481 -3.52347,-1.78481 -2.2464,0 -3.53885,1.78481 -1.27707,1.76943 -1.27707,4.89285 0,3.12342 1.27707,4.90823 1.29245,1.76943 3.53885,1.76943 2.2464,0 3.52347,-1.76943 1.29245,-1.78481 1.29245,-4.90823 z m -9.63184,-6.01605 q 0.89241,-1.53863 2.2464,-2.27718 1.36939,-0.75393 3.2619,-0.75393 3.13881,0 5.09287,2.49259 1.96945,2.49258 1.96945,6.55457 0,4.06199 -1.96945,6.55457 -1.95406,2.49258 -5.09287,2.49258 -1.89251,0 -3.2619,-0.73854 -1.35399,-0.75393 -2.2464,-2.29256 l 0,2.5849 -2.84647,0 0,-23.94111 2.84647,0 0,9.32411 z" /><path
       inkscape:connector-curvature="0"
       id="path3448"
       style="font-size:31.51117325px;font-family:Arial-BoldMT;fill:#00578c;fill-opacity:1"
       d="m -132.88361,447.01659 0,1.38477 -13.01683,0 q 0.18464,2.9234 1.75404,4.46203 1.58479,1.52325 4.40049,1.52325 1.63095,0 3.15419,-0.40005 1.53864,-0.40004 3.0465,-1.20013 l 0,2.67722 q -1.52325,0.64622 -3.12343,0.98472 -1.60017,0.3385 -3.24651,0.3385 -4.12353,0 -6.53918,-2.40026 -2.40027,-2.40027 -2.40027,-6.49303 0,-4.23124 2.27718,-6.70843 2.29256,-2.49259 6.16991,-2.49259 3.47731,0 5.49291,2.24641 2.031,2.23101 2.031,6.07759 z m -2.83109,-0.83086 q -0.0308,-2.32333 -1.30783,-3.7081 -1.26168,-1.38477 -3.35422,-1.38477 -2.36949,0 -3.80042,1.33861 -1.41554,1.33861 -1.63095,3.76965 l 10.09342,-0.0154 z" /><path
       inkscape:connector-curvature="0"
       id="path3450"
       style="font-size:31.51117325px;font-family:Arial-BoldMT;fill:#00578c;fill-opacity:1"
       d="m -118.25123,441.75447 q -0.47697,-0.27695 -1.04627,-0.40004 -0.5539,-0.13848 -1.2309,-0.13848 -2.40027,0 -3.69272,1.5694 -1.27706,1.55402 -1.27706,4.47742 l 0,9.07793 -2.84647,0 0,-17.23267 2.84647,0 0,2.67721 q 0.8924,-1.5694 2.32333,-2.32333 1.43093,-0.76932 3.47731,-0.76932 0.29234,0 0.64622,0.0462 0.35389,0.0308 0.78471,0.10771 l 0.0154,2.90801 z" /><path
       inkscape:connector-curvature="0"
       id="path3452"
       style="font-size:31.51117325px;font-family:Arial-BoldMT;fill:#00578c;fill-opacity:1"
       d="m -112.45059,434.21518 0,4.89285 5.83141,0 0,2.20024 -5.83141,0 0,9.35488 q 0,2.10792 0.56929,2.70799 0.58468,0.60007 2.35411,0.60007 l 2.90801,0 0,2.36949 -2.90801,0 q -3.27729,0 -4.52358,-1.21552 -1.24629,-1.23091 -1.24629,-4.46203 l 0,-9.35488 -2.07715,0 0,-2.20024 2.07715,0 0,-4.89285 2.84647,0 z" /><path
       inkscape:connector-curvature="0"
       id="path3454"
       style="font-size:31.51117325px;font-family:Arial-BoldMT;fill:#00578c;fill-opacity:1"
       d="m -91.894473,439.61577 0,2.67722 q -1.200133,-0.61545 -2.492583,-0.92318 -1.292451,-0.30772 -2.677219,-0.30772 -2.107925,0 -3.169585,0.64622 -1.04627,0.64623 -1.04627,1.93868 0,0.98472 0.75393,1.55402 0.753933,0.5539 3.031108,1.06165 l 0.969338,0.21541 q 3.015718,0.64623 4.277395,1.83097 1.277065,1.16936 1.277065,3.27729 0,2.40026 -1.907904,3.80042 -1.892516,1.40015 -5.21596,1.40015 -1.384769,0 -2.892632,-0.27695 -1.49247,-0.26157 -3.15419,-0.80009 l 0,-2.9234 q 1.5694,0.81547 3.09265,1.2309 1.523244,0.40005 3.015717,0.40005 2.000221,0 3.077263,-0.677 1.077042,-0.69238 1.077042,-1.93867 0,-1.15398 -0.784702,-1.76943 -0.769316,-0.61545 -3.400376,-1.18475 l -0.984724,-0.23079 q -2.63106,-0.55391 -3.80042,-1.6925 -1.16936,-1.15397 -1.16936,-3.15419 0,-2.43104 1.72327,-3.75426 1.72326,-1.32323 4.892846,-1.32323 1.569404,0 2.954172,0.2308 1.384769,0.23079 2.554129,0.69238 z" /><path
       inkscape:connector-curvature="0"
       id="path3456"
       style="font-size:31.51117325px;font-family:Arial-BoldMT;fill:#00578c;fill-opacity:1"
       d="m -86.447723,439.10803 2.831082,0 0,17.23267 -2.831082,0 0,-17.23267 z m 0,-6.70844 2.831082,0 0,3.58501 -2.831082,0 0,-3.58501 z" /><path
       inkscape:connector-curvature="0"
       id="path3458"
       style="font-size:31.51117325px;font-family:Arial-BoldMT;fill:#00578c;fill-opacity:1"
       d="m -74.907973,434.21518 0,4.89285 5.831413,0 0,2.20024 -5.831413,0 0,9.35488 q 0,2.10792 0.569294,2.70799 0.58468,0.60007 2.354106,0.60007 l 2.908013,0 0,2.36949 -2.908013,0 q -3.277285,0 -4.523577,-1.21552 -1.246291,-1.23091 -1.246291,-4.46203 l 0,-9.35488 -2.077153,0 0,-2.20024 2.077153,0 0,-4.89285 2.846468,0 z" /><path
       inkscape:connector-curvature="0"
       id="path3460"
       style="font-size:31.51117325px;font-family:Arial-BoldMT;fill:#00578c;fill-opacity:1"
       d="m -57.506058,447.6782 q -3.431148,0 -4.754371,0.7847 -1.323223,0.78471 -1.323223,2.67722 0,1.50786 0.984724,2.40027 1.00011,0.87702 2.707991,0.87702 2.354107,0 3.769648,-1.66172 1.430927,-1.67711 1.430927,-4.44665 l 0,-0.63084 -2.815696,0 z m 5.646778,-1.16936 0,9.83186 -2.831082,0 0,-2.61568 q -0.969338,1.56941 -2.415652,2.32334 -1.446313,0.73854 -3.538852,0.73854 -2.646446,0 -4.21585,-1.47708 -1.554018,-1.49248 -1.554018,-3.98506 0,-2.90801 1.938675,-4.3851 1.954062,-1.47709 5.816028,-1.47709 l 3.969669,0 0,-0.27695 q 0,-1.95406 -1.292451,-3.01572 -1.277064,-1.07704 -3.600397,-1.07704 -1.477087,0 -2.877241,0.35389 -1.400155,0.35388 -2.692605,1.06165 l 0,-2.61567 q 1.554017,-0.60007 3.015717,-0.89241 1.4617,-0.30773 2.846469,-0.30773 3.738874,0 5.585232,1.93868 1.846358,1.93868 1.846358,5.87757 z" /><path
       inkscape:connector-curvature="0"
       id="path3462"
       style="font-size:31.51117325px;font-family:Arial-BoldMT;fill:#00578c;fill-opacity:1"
       d="m -43.212172,434.21518 0,4.89285 5.831413,0 0,2.20024 -5.831413,0 0,9.35488 q 0,2.10792 0.569293,2.70799 0.58468,0.60007 2.354107,0.60007 l 2.908013,0 0,2.36949 -2.908013,0 q -3.277286,0 -4.523577,-1.21552 -1.246292,-1.23091 -1.246292,-4.46203 l 0,-9.35488 -2.077152,0 0,-2.20024 2.077152,0 0,-4.89285 2.846469,0 z" /><path
       inkscape:connector-curvature="0"
       id="path3464"
       style="font-size:31.51117325px;font-family:Arial-BoldMT;fill:#00578c;fill-opacity:1"
       d="m -18.901786,447.01659 0,1.38477 -13.016823,0 q 0.184636,2.9234 1.75404,4.46203 1.584791,1.52325 4.400486,1.52325 1.63095,0 3.154195,-0.40005 1.538631,-0.40004 3.04649,-1.20013 l 0,2.67722 q -1.523245,0.64622 -3.123422,0.98472 -1.600177,0.3385 -3.246512,0.3385 -4.123533,0 -6.539184,-2.40026 -2.400265,-2.40027 -2.400265,-6.49303 0,-4.23124 2.277174,-6.70843 2.292561,-2.49259 6.169913,-2.49259 3.477307,0 5.492914,2.24641 2.030994,2.23101 2.030994,6.07759 z m -2.831082,-0.83086 q -0.03077,-2.32333 -1.307837,-3.7081 -1.261678,-1.38477 -3.354217,-1.38477 -2.369492,0 -3.80042,1.33861 -1.415541,1.33861 -1.630949,3.76965 l 10.093423,-0.0154 z" /><path
       inkscape:connector-curvature="0"
       id="path3466"
       style="font-size:31.51117325px;font-family:Arial-BoldMT;fill:#00578c;fill-opacity:1"
       d="m -4.1001607,433.36893 14.5246817,0 0,2.61567 -11.41664609,0 0,6.80075 10.93966999,0 0,2.61568 -10.93966999,0 0,8.32399 11.69359909,0 0,2.61568 -14.8016347,0 0,-22.97177 z" /><path
       inkscape:connector-curvature="0"
       id="path3468"
       style="font-size:31.51117325px;font-family:Arial-BoldMT;fill:#00578c;fill-opacity:1"
       d="m 26.703252,439.61577 0,2.67722 q -1.200133,-0.61545 -2.492584,-0.92318 -1.29245,-0.30772 -2.677218,-0.30772 -2.107925,0 -3.169581,0.64622 -1.04627,0.64623 -1.04627,1.93868 0,0.98472 0.75393,1.55402 0.753929,0.5539 3.031104,1.06165 l 0.969338,0.21541 q 3.015717,0.64623 4.277395,1.83097 1.277064,1.16936 1.277064,3.27729 0,2.40026 -1.907903,3.80042 -1.892516,1.40015 -5.21596,1.40015 -1.384769,0 -2.892628,-0.27695 -1.492472,-0.26157 -3.154194,-0.80009 l 0,-2.9234 q 1.569404,0.81547 3.092649,1.2309 1.523245,0.40005 3.015718,0.40005 2.000221,0 3.077263,-0.677 1.077042,-0.69238 1.077042,-1.93867 0,-1.15398 -0.784702,-1.76943 -0.769316,-0.61545 -3.400376,-1.18475 l -0.984724,-0.23079 q -2.63106,-0.55391 -3.80042,-1.6925 -1.16936,-1.15397 -1.16936,-3.15419 0,-2.43104 1.723268,-3.75426 1.723267,-1.32323 4.892848,-1.32323 1.569404,0 2.954172,0.2308 1.384769,0.23079 2.554129,0.69238 z" /><path
       inkscape:connector-curvature="0"
       id="path3470"
       style="font-size:31.51117325px;font-family:Arial-BoldMT;fill:#00578c;fill-opacity:1"
       d="m 32.04229,432.39959 2.846468,0 0,14.14003 8.447087,-7.43159 3.615784,0 -9.139471,8.06242 9.524129,9.17025 -3.692716,0 -8.754813,-8.41632 0,8.41632 -2.846468,0 0,-23.94111 z" /><path
       inkscape:connector-curvature="0"
       id="path3472"
       style="font-size:31.51117325px;font-family:Arial-BoldMT;fill:#00578c;fill-opacity:1"
       d="m 55.998797,441.09286 q -2.277174,0 -3.600397,1.78481 -1.323224,1.76943 -1.323224,4.86208 0,3.09265 1.307837,4.87746 1.323223,1.76943 3.615784,1.76943 2.261789,0 3.585012,-1.78482 1.323223,-1.78481 1.323223,-4.86207 0,-3.06188 -1.323223,-4.84669 -1.323223,-1.8002 -3.585012,-1.8002 z m 0,-2.40027 q 3.692716,0 5.800641,2.40027 2.107925,2.40027 2.107925,6.64689 0,4.23123 -2.107925,6.64689 -2.107925,2.40026 -5.800641,2.40026 -3.708102,0 -5.816027,-2.40026 -2.092539,-2.41566 -2.092539,-6.64689 0,-4.24662 2.092539,-6.64689 2.107925,-2.40027 5.816027,-2.40027 z" /><path
       inkscape:connector-curvature="0"
       id="path3474"
       style="font-size:31.51117325px;font-family:Arial-BoldMT;fill:#00578c;fill-opacity:1"
       d="m 68.584808,432.39959 2.831082,0 0,23.94111 -2.831082,0 0,-23.94111 z" /><path
       inkscape:connector-curvature="0"
       id="path3476"
       style="font-size:31.51117325px;font-family:Arial-BoldMT;fill:#00578c;fill-opacity:1"
       d="m 85.155853,447.6782 q -3.431148,0 -4.754371,0.7847 -1.323223,0.78471 -1.323223,2.67722 0,1.50786 0.984724,2.40027 1.00011,0.87702 2.707991,0.87702 2.354107,0 3.769648,-1.66172 1.430927,-1.67711 1.430927,-4.44665 l 0,-0.63084 -2.815696,0 z m 5.646778,-1.16936 0,9.83186 -2.831082,0 0,-2.61568 q -0.969338,1.56941 -2.415652,2.32334 -1.446313,0.73854 -3.538852,0.73854 -2.646446,0 -4.21585,-1.47708 -1.554018,-1.49248 -1.554018,-3.98506 0,-2.90801 1.938675,-4.3851 1.954062,-1.47709 5.816028,-1.47709 l 3.969669,0 0,-0.27695 q 0,-1.95406 -1.292451,-3.01572 -1.277064,-1.07704 -3.600397,-1.07704 -1.477087,0 -2.877241,0.35389 -1.400155,0.35388 -2.692605,1.06165 l 0,-2.61567 q 1.554017,-0.60007 3.015717,-0.89241 1.4617,-0.30773 2.846469,-0.30773 3.738874,0 5.585232,1.93868 1.846358,1.93868 1.846358,5.87757 z" /><path
       inkscape:connector-curvature="0"
       id="path3478"
       style="font-size:31.51117325px;font-family:Arial-BoldMT;fill:#00578c;fill-opacity:1"
       d="m -213.4002,493.88889 -8.7702,-22.97177 3.24651,0 7.27773,19.3406 7.29311,-19.3406 3.23113,0 -8.75481,22.97177 -3.52347,0 z" /><path
       inkscape:connector-curvature="0"
       id="path3480"
       style="font-size:31.51117325px;font-family:Arial-BoldMT;fill:#00578c;fill-opacity:1"
       d="m -198.58318,476.65621 2.83108,0 0,17.23268 -2.83108,0 0,-17.23268 z m 0,-6.70843 2.83108,0 0,3.58501 -2.83108,0 0,-3.58501 z" /><path
       inkscape:connector-curvature="0"
       id="path3482"
       style="font-size:31.51117325px;font-family:Arial-BoldMT;fill:#00578c;fill-opacity:1"
       d="m -187.04344,471.76336 0,4.89285 5.83141,0 0,2.20025 -5.83141,0 0,9.35488 q 0,2.10792 0.56929,2.70799 0.58468,0.60006 2.35411,0.60006 l 2.90801,0 0,2.3695 -2.90801,0 q -3.27729,0 -4.52358,-1.21552 -1.24629,-1.23091 -1.24629,-4.46203 l 0,-9.35488 -2.07715,0 0,-2.20025 2.07715,0 0,-4.89285 2.84647,0 z" /><path
       inkscape:connector-curvature="0"
       id="path3484"
       style="font-size:31.51117325px;font-family:Arial-BoldMT;fill:#00578c;fill-opacity:1"
       d="m -170.79549,478.64105 q -2.27718,0 -3.6004,1.78481 -1.32322,1.76943 -1.32322,4.86208 0,3.09264 1.30783,4.87746 1.32323,1.76942 3.61579,1.76942 2.26179,0 3.58501,-1.78481 1.32322,-1.78481 1.32322,-4.86207 0,-3.06188 -1.32322,-4.84669 -1.32322,-1.8002 -3.58501,-1.8002 z m 0,-2.40027 q 3.69271,0 5.80064,2.40027 2.10792,2.40026 2.10792,6.64689 0,4.23123 -2.10792,6.64688 -2.10793,2.40027 -5.80064,2.40027 -3.7081,0 -5.81603,-2.40027 -2.09254,-2.41565 -2.09254,-6.64688 0,-4.24663 2.09254,-6.64689 2.10793,-2.40027 5.81603,-2.40027 z" /><path
       inkscape:connector-curvature="0"
       id="path3486"
       style="font-size:31.51117325px;font-family:Arial-BoldMT;fill:#00578c;fill-opacity:1"
       d="m -148.22377,479.30266 q -0.47698,-0.27695 -1.04627,-0.40005 -0.55391,-0.13847 -1.2309,-0.13847 -2.40027,0 -3.69272,1.5694 -1.27706,1.55402 -1.27706,4.47742 l 0,9.07793 -2.84647,0 0,-17.23268 2.84647,0 0,2.67722 q 0.8924,-1.5694 2.32333,-2.32333 1.43093,-0.76932 3.47731,-0.76932 0.29234,0 0.64622,0.0462 0.35389,0.0308 0.7847,0.10771 l 0.0154,2.90801 z" /><path
       inkscape:connector-curvature="0"
       id="path3488"
       style="font-size:31.51117325px;font-family:Arial-BoldMT;fill:#00578c;fill-opacity:1"
       d="m -145.22343,476.65621 2.83108,0 0,17.23268 -2.83108,0 0,-17.23268 z m 0,-6.70843 2.83108,0 0,3.58501 -2.83108,0 0,-3.58501 z" /><path
       inkscape:connector-curvature="0"
       id="path3490"
       style="font-size:31.51117325px;font-family:Arial-BoldMT;fill:#00578c;fill-opacity:1"
       d="m -128.65237,485.22639 q -3.43115,0 -4.75438,0.7847 -1.32322,0.7847 -1.32322,2.67722 0,1.50786 0.98473,2.40027 1.00011,0.87702 2.70799,0.87702 2.3541,0 3.76964,-1.66173 1.43093,-1.6771 1.43093,-4.44664 l 0,-0.63084 -2.81569,0 z m 5.64677,-1.16936 0,9.83186 -2.83108,0 0,-2.61568 q -0.96934,1.56941 -2.41565,2.32334 -1.44631,0.73854 -3.53885,0.73854 -2.64645,0 -4.21585,-1.47709 -1.55402,-1.49247 -1.55402,-3.98505 0,-2.90802 1.93867,-4.3851 1.95407,-1.47709 5.81603,-1.47709 l 3.96967,0 0,-0.27695 q 0,-1.95406 -1.29245,-3.01572 -1.27706,-1.07704 -3.6004,-1.07704 -1.47708,0 -2.87724,0.35388 -1.40015,0.35389 -2.6926,1.06166 l 0,-2.61568 q 1.55401,-0.60006 3.01571,-0.8924 1.4617,-0.30773 2.84647,-0.30773 3.73888,0 5.58524,1.93868 1.84635,1.93867 1.84635,5.87757 z" /><path
       inkscape:connector-curvature="0"
       id="path3492"
       style="font-size:31.51117325px;font-family:Arial-BoldMT;fill:#00578c;fill-opacity:1"
       d="m -118.58973,483.99548 8.29323,0 0,2.52336 -8.29323,0 0,-2.52336 z" /><path
       inkscape:connector-curvature="0"
       id="path3494"
       style="font-size:31.51117325px;font-family:Arial-BoldMT;fill:#00578c;fill-opacity:1"
       d="m -88.81721,490.6116 0,-6.16991 -5.077484,0 0,-2.55413 8.154747,0 0,9.86263 q -1.800199,1.27706 -3.969669,1.93867 -2.16947,0.64623 -4.631281,0.64623 -5.38521,0 -8.431703,-3.13881 -3.0311,-3.15419 -3.0311,-8.7702 0,-5.63139 3.0311,-8.7702 3.046493,-3.15419 8.431703,-3.15419 2.246402,0 4.262009,0.5539 2.030994,0.55391 3.738875,1.63095 l 0,3.30806 q -1.723267,-1.4617 -3.661943,-2.20024 -1.938676,-0.73855 -4.077373,-0.73855 -4.215851,0 -6.339161,2.35411 -2.10793,2.35411 -2.10793,7.01616 0,4.64667 2.10793,7.00077 2.12331,2.35411 6.339161,2.35411 1.646335,0 2.938786,-0.27695 1.29245,-0.29234 2.323333,-0.89241 z" /><path
       inkscape:connector-curvature="0"
       id="path3496"
       style="font-size:31.51117325px;font-family:Arial-BoldMT;fill:#00578c;fill-opacity:1"
       d="m -72.338471,485.22639 q -3.431148,0 -4.754371,0.7847 -1.323223,0.7847 -1.323223,2.67722 0,1.50786 0.984724,2.40027 1.000111,0.87702 2.707992,0.87702 2.354106,0 3.769647,-1.66173 1.430927,-1.6771 1.430927,-4.44664 l 0,-0.63084 -2.815696,0 z m 5.646778,-1.16936 0,9.83186 -2.831082,0 0,-2.61568 q -0.969338,1.56941 -2.415651,2.32334 -1.446314,0.73854 -3.538853,0.73854 -2.646446,0 -4.21585,-1.47709 -1.554018,-1.49247 -1.554018,-3.98505 0,-2.90802 1.938676,-4.3851 1.954062,-1.47709 5.816027,-1.47709 l 3.969669,0 0,-0.27695 q 0,-1.95406 -1.29245,-3.01572 -1.277064,-1.07704 -3.600398,-1.07704 -1.477086,0 -2.877241,0.35388 -1.400155,0.35389 -2.692605,1.06166 l 0,-2.61568 q 1.554018,-0.60006 3.015718,-0.8924 1.4617,-0.30773 2.846468,-0.30773 3.738874,0 5.585232,1.93868 1.846358,1.93867 1.846358,5.87757 z" /><path
       inkscape:connector-curvature="0"
       id="path3498"
       style="font-size:31.51117325px;font-family:Arial-BoldMT;fill:#00578c;fill-opacity:1"
       d="m -49.85905,477.16396 0,2.67722 q -1.200133,-0.61545 -2.492583,-0.92318 -1.292451,-0.30773 -2.677219,-0.30773 -2.107925,0 -3.169581,0.64623 -1.046269,0.64623 -1.046269,1.93868 0,0.98472 0.753929,1.55401 0.75393,0.55391 3.031104,1.06166 l 0.969338,0.21541 q 3.015718,0.64622 4.277396,1.83097 1.277064,1.16936 1.277064,3.27728 0,2.40027 -1.907903,3.80042 -1.892517,1.40016 -5.215961,1.40016 -1.384768,0 -2.892627,-0.27696 -1.492473,-0.26156 -3.154195,-0.80008 l 0,-2.9234 q 1.569404,0.81547 3.092649,1.2309 1.523246,0.40005 3.015718,0.40005 2.000221,0 3.077263,-0.677 1.077042,-0.69239 1.077042,-1.93868 0,-1.15397 -0.784702,-1.76942 -0.769316,-0.61546 -3.400375,-1.18475 l -0.984725,-0.23079 q -2.631059,-0.55391 -3.800419,-1.6925 -1.16936,-1.15397 -1.16936,-3.15419 0,-2.43104 1.723267,-3.75426 1.723267,-1.32323 4.892848,-1.32323 1.569404,0 2.954173,0.2308 1.384768,0.23079 2.554128,0.69238 z" /><path
       inkscape:connector-curvature="0"
       id="path3500"
       style="font-size:31.51117325px;font-family:Arial-BoldMT;fill:#00578c;fill-opacity:1"
       d="m -41.611998,471.76336 0,4.89285 5.831413,0 0,2.20025 -5.831413,0 0,9.35488 q 0,2.10792 0.569293,2.70799 0.58468,0.60006 2.354107,0.60006 l 2.908013,0 0,2.3695 -2.908013,0 q -3.277286,0 -4.523577,-1.21552 -1.246292,-1.23091 -1.246292,-4.46203 l 0,-9.35488 -2.077152,0 0,-2.20025 2.077152,0 0,-4.89285 2.846469,0 z" /><path
       inkscape:connector-curvature="0"
       id="path3502"
       style="font-size:31.51117325px;font-family:Arial-BoldMT;fill:#00578c;fill-opacity:1"
       d="m -17.301612,484.56478 0,1.38477 -13.016823,0 q 0.184636,2.9234 1.75404,4.46203 1.58479,1.52324 4.400486,1.52324 1.63095,0 3.154195,-0.40004 1.538631,-0.40004 3.04649,-1.20013 l 0,2.67722 q -1.523245,0.64622 -3.123422,0.98472 -1.600177,0.3385 -3.246512,0.3385 -4.123533,0 -6.539184,-2.40027 -2.400265,-2.40026 -2.400265,-6.49302 0,-4.23124 2.277174,-6.70843 2.292561,-2.49259 6.169913,-2.49259 3.477307,0 5.492914,2.2464 2.030994,2.23102 2.030994,6.0776 z m -2.831082,-0.83086 q -0.03077,-2.32334 -1.307837,-3.7081 -1.261678,-1.38477 -3.354217,-1.38477 -2.369492,0 -3.80042,1.33861 -1.415541,1.33861 -1.630949,3.76964 l 10.093423,-0.0154 z" /><path
       inkscape:connector-curvature="0"
       id="path3504"
       style="font-size:31.51117325px;font-family:Arial-BoldMT;fill:#00578c;fill-opacity:1"
       d="m -12.654953,476.65621 2.8310821,0 0,17.23268 -2.8310821,0 0,-17.23268 z m 0,-6.70843 2.8310821,0 0,3.58501 -2.8310821,0 0,-3.58501 z" /><path
       inkscape:connector-curvature="0"
       id="path3506"
       style="font-size:31.51117325px;font-family:Arial-BoldMT;fill:#00578c;fill-opacity:1"
       d="m -5.1464325,476.65621 13.4476394,0 0,2.5849 -10.64733,12.38599 10.64733,0 0,2.26179 -13.8322972,0 0,-2.58491 10.64733,-12.38598 -10.2626722,0 0,-2.26179 z" /><path
       inkscape:connector-curvature="0"
       id="path3508"
       style="font-size:31.51117325px;font-family:Arial-BoldMT;fill:#00578c;fill-opacity:1"
       d="m 12.532448,469.94778 2.846468,0 0,14.14002 8.447087,-7.43159 3.615784,0 -9.139471,8.06243 9.524129,9.17025 -3.692716,0 -8.754813,-8.41632 0,8.41632 -2.846468,0 0,-23.94111 z" /><path
       inkscape:connector-curvature="0"
       id="path3510"
       style="font-size:31.51117325px;font-family:Arial-BoldMT;fill:#00578c;fill-opacity:1"
       d="m 36.48894,478.64105 q -2.277175,0 -3.600398,1.78481 -1.323223,1.76943 -1.323223,4.86208 0,3.09264 1.307837,4.87746 1.323223,1.76942 3.615784,1.76942 2.261788,0 3.585012,-1.78481 1.323223,-1.78481 1.323223,-4.86207 0,-3.06188 -1.323223,-4.84669 -1.323224,-1.8002 -3.585012,-1.8002 z m 0,-2.40027 q 3.692716,0 5.800641,2.40027 2.107925,2.40026 2.107925,6.64689 0,4.23123 -2.107925,6.64688 -2.107925,2.40027 -5.800641,2.40027 -3.708102,0 -5.816027,-2.40027 -2.092539,-2.41565 -2.092539,-6.64688 0,-4.24663 2.092539,-6.64689 2.107925,-2.40027 5.816027,-2.40027 z" /></g><g
     id="text291"
     style="font-size:54.94857025px;fill:#00578c;fill-opacity:1"
     transform="matrix(1.1376162,0,0,1.2350073,697.61553,-59.811977)"><path
       inkscape:connector-curvature="0"
       id="path3513"
       style="font-size:31.51117325px;font-family:Arial-BoldMT;fill:#00578c;fill-opacity:1"
       d="m -582.88837,395.36283 14.52468,0 0,2.61567 -11.41664,0 0,6.80075 10.93967,0 0,2.61567 -10.93967,0 0,8.324 11.6936,0 0,2.61567 -14.80164,0 0,-22.97176 z" /><path
       inkscape:connector-curvature="0"
       id="path3515"
       style="font-size:31.51117325px;font-family:Arial-BoldMT;fill:#00578c;fill-opacity:1"
       d="m -552.08497,401.60967 0,2.67722 q -1.20013,-0.61545 -2.49258,-0.92318 -1.29245,-0.30773 -2.67722,-0.30773 -2.10792,0 -3.16958,0.64623 -1.04627,0.64622 -1.04627,1.93867 0,0.98473 0.75393,1.55402 0.75393,0.55391 3.03111,1.06166 l 0.96933,0.21541 q 3.01572,0.64622 4.2774,1.83097 1.27706,1.16936 1.27706,3.27728 0,2.40027 -1.9079,3.80042 -1.89252,1.40016 -5.21596,1.40016 -1.38477,0 -2.89263,-0.27696 -1.49247,-0.26156 -3.15419,-0.80008 l 0,-2.9234 q 1.5694,0.81547 3.09265,1.2309 1.52324,0.40005 3.01571,0.40005 2.00023,0 3.07727,-0.677 1.07704,-0.69239 1.07704,-1.93868 0,-1.15397 -0.7847,-1.76942 -0.76932,-0.61546 -3.40038,-1.18475 l -0.98472,-0.2308 q -2.63106,-0.5539 -3.80042,-1.69249 -1.16936,-1.15397 -1.16936,-3.15419 0,-2.43104 1.72327,-3.75427 1.72326,-1.32322 4.89284,-1.32322 1.56941,0 2.95418,0.2308 1.38476,0.23079 2.55412,0.69238 z" /><path
       inkscape:connector-curvature="0"
       id="path3517"
       style="font-size:31.51117325px;font-family:Arial-BoldMT;fill:#00578c;fill-opacity:1"
       d="m -534.23684,401.76353 0,2.64645 q -1.20013,-0.66161 -2.41565,-0.98472 -1.20013,-0.3385 -2.43104,-0.3385 -2.75415,0 -4.2774,1.75404 -1.52324,1.73865 -1.52324,4.89284 0,3.1542 1.52324,4.90824 1.52325,1.73865 4.2774,1.73865 1.23091,0 2.43104,-0.32311 1.21552,-0.3385 2.41565,-1.00011 l 0,2.61567 q -1.18475,0.55391 -2.46181,0.83086 -1.26168,0.27696 -2.69261,0.27696 -3.89273,0 -6.18529,-2.44643 -2.29257,-2.44642 -2.29257,-6.60073 0,-4.21585 2.30795,-6.6315 2.32334,-2.41565 6.35455,-2.41565 1.30784,0 2.55413,0.27696 1.24629,0.26156 2.41565,0.80008 z" /><path
       inkscape:connector-curvature="0"
       id="path3519"
       style="font-size:31.51117325px;font-family:Arial-BoldMT;fill:#00578c;fill-opacity:1"
       d="m -529.57479,411.53384 0,-10.43192 2.83108,0 0,10.32422 q 0,2.44642 0.95396,3.67733 0.95395,1.21552 2.86185,1.21552 2.29256,0 3.61578,-1.4617 1.33861,-1.4617 1.33861,-3.98506 l 0,-9.77031 2.83109,0 0,17.23267 -2.83109,0 0,-2.64644 q -1.03088,1.5694 -2.40026,2.33872 -1.354,0.75393 -3.1542,0.75393 -2.96955,0 -4.50819,-1.84636 -1.53863,-1.84636 -1.53863,-5.4006 z m 7.12387,-10.84735 0,0 z" /><path
       inkscape:connector-curvature="0"
       id="path3521"
       style="font-size:31.51117325px;font-family:Arial-BoldMT;fill:#00578c;fill-opacity:1"
       d="m -494.54015,409.01049 0,1.38477 -13.01683,0 q 0.18464,2.9234 1.75404,4.46203 1.58479,1.52324 4.40049,1.52324 1.63095,0 3.1542,-0.40004 1.53863,-0.40005 3.04649,-1.20013 l 0,2.67721 q -1.52325,0.64623 -3.12343,0.98473 -1.60017,0.3385 -3.24651,0.3385 -4.12353,0 -6.53918,-2.40027 -2.40027,-2.40026 -2.40027,-6.49302 0,-4.23124 2.27718,-6.70844 2.29256,-2.49258 6.16991,-2.49258 3.47731,0 5.49291,2.2464 2.031,2.23102 2.031,6.0776 z m -2.83108,-0.83086 q -0.0308,-2.32334 -1.30784,-3.70811 -1.26168,-1.38476 -3.35422,-1.38476 -2.36949,0 -3.80042,1.33861 -1.41554,1.33861 -1.63095,3.76964 l 10.09343,-0.0154 z" /><path
       inkscape:connector-curvature="0"
       id="path3523"
       style="font-size:31.51117325px;font-family:Arial-BoldMT;fill:#00578c;fill-opacity:1"
       d="m -489.89348,394.39349 2.83108,0 0,23.9411 -2.83108,0 0,-23.9411 z" /><path
       inkscape:connector-curvature="0"
       id="path3525"
       style="font-size:31.51117325px;font-family:Arial-BoldMT;fill:#00578c;fill-opacity:1"
       d="m -473.32242,409.6721 q -3.43115,0 -4.75437,0.7847 -1.32322,0.7847 -1.32322,2.67722 0,1.50786 0.98472,2.40027 1.00011,0.87702 2.70799,0.87702 2.35411,0 3.76965,-1.66173 1.43093,-1.67711 1.43093,-4.44664 l 0,-0.63084 -2.8157,0 z m 5.64678,-1.16936 0,9.83185 -2.83108,0 0,-2.61567 q -0.96934,1.56941 -2.41565,2.32333 -1.44632,0.73855 -3.53886,0.73855 -2.64644,0 -4.21585,-1.47709 -1.55401,-1.49247 -1.55401,-3.98505 0,-2.90802 1.93867,-4.3851 1.95406,-1.47709 5.81603,-1.47709 l 3.96967,0 0,-0.27695 q 0,-1.95407 -1.29245,-3.01572 -1.27707,-1.07704 -3.6004,-1.07704 -1.47709,0 -2.87724,0.35388 -1.40016,0.35389 -2.69261,1.06166 l 0,-2.61568 q 1.55402,-0.60006 3.01572,-0.8924 1.4617,-0.30773 2.84647,-0.30773 3.73887,0 5.58523,1.93868 1.84636,1.93867 1.84636,5.87757 z" /><path
       inkscape:connector-curvature="0"
       id="path3527"
       style="font-size:31.51117325px;font-family:Arial-BoldMT;fill:#00578c;fill-opacity:1"
       d="m -452.02776,395.36283 3.12342,0 0,13.95538 q 0,3.69272 1.33861,5.32367 1.33861,1.61556 4.33894,1.61556 2.98495,0 4.32356,-1.61556 1.3386,-1.63095 1.3386,-5.32367 l 0,-13.95538 3.12343,0 0,14.34004 q 0,4.49281 -2.23102,6.78537 -2.21563,2.29256 -6.55457,2.29256 -4.35433,0 -6.58534,-2.29256 -2.21563,-2.29256 -2.21563,-6.78537 l 0,-14.34004 z" /><path
       inkscape:connector-curvature="0"
       id="path3529"
       style="font-size:31.51117325px;font-family:Arial-BoldMT;fill:#00578c;fill-opacity:1"
       d="m -414.39284,407.93345 0,10.40114 -2.83108,0 0,-10.30883 q 0,-2.44642 -0.95395,-3.66194 -0.95395,-1.21552 -2.86186,-1.21552 -2.29256,0 -3.61578,1.4617 -1.32322,1.4617 -1.32322,3.98506 l 0,9.73953 -2.84647,0 0,-17.23267 2.84647,0 0,2.67722 q 1.01549,-1.55402 2.38487,-2.32333 1.38477,-0.76932 3.18497,-0.76932 2.96956,0 4.49281,1.84636 1.52324,1.83097 1.52324,5.4006 z" /><path
       inkscape:connector-curvature="0"
       id="path3531"
       style="font-size:31.51117325px;font-family:Arial-BoldMT;fill:#00578c;fill-opacity:1"
       d="m -408.71529,401.10192 2.83109,0 0,17.23267 -2.83109,0 0,-17.23267 z m 0,-6.70843 2.83109,0 0,3.58501 -2.83109,0 0,-3.58501 z" /><path
       inkscape:connector-curvature="0"
       id="path3533"
       style="font-size:31.51117325px;font-family:Arial-BoldMT;fill:#00578c;fill-opacity:1"
       d="m -402.00685,401.10192 3.00033,0 5.38521,14.46314 5.38521,-14.46314 3.00033,0 -6.46225,17.23267 -3.84658,0 -6.46225,-17.23267 z" /><path
       inkscape:connector-curvature="0"
       id="path3535"
       style="font-size:31.51117325px;font-family:Arial-BoldMT;fill:#00578c;fill-opacity:1"
       d="m -366.58755,409.01049 0,1.38477 -13.01682,0 q 0.18464,2.9234 1.75404,4.46203 1.58479,1.52324 4.40049,1.52324 1.63095,0 3.15419,-0.40004 1.53863,-0.40005 3.04649,-1.20013 l 0,2.67721 q -1.52324,0.64623 -3.12342,0.98473 -1.60018,0.3385 -3.24651,0.3385 -4.12354,0 -6.53919,-2.40027 -2.40026,-2.40026 -2.40026,-6.49302 0,-4.23124 2.27717,-6.70844 2.29256,-2.49258 6.16992,-2.49258 3.4773,0 5.49291,2.2464 2.03099,2.23102 2.03099,6.0776 z m -2.83108,-0.83086 q -0.0308,-2.32334 -1.30784,-3.70811 -1.26167,-1.38476 -3.35421,-1.38476 -2.36949,0 -3.80042,1.33861 -1.41554,1.33861 -1.63095,3.76964 l 10.09342,-0.0154 z" /><path
       inkscape:connector-curvature="0"
       id="path3537"
       style="font-size:31.51117325px;font-family:Arial-BoldMT;fill:#00578c;fill-opacity:1"
       d="m -351.95517,403.74837 q -0.47697,-0.27696 -1.04627,-0.40005 -0.55391,-0.13847 -1.2309,-0.13847 -2.40027,0 -3.69272,1.5694 -1.27706,1.55402 -1.27706,4.47742 l 0,9.07792 -2.84647,0 0,-17.23267 2.84647,0 0,2.67722 q 0.8924,-1.5694 2.32333,-2.32333 1.43093,-0.76932 3.47731,-0.76932 0.29234,0 0.64622,0.0462 0.35389,0.0308 0.7847,0.1077 l 0.0154,2.90802 z" /><path
       inkscape:connector-curvature="0"
       id="path3539"
       style="font-size:31.51117325px;font-family:Arial-BoldMT;fill:#00578c;fill-opacity:1"
       d="m -337.969,401.60967 0,2.67722 q -1.20014,-0.61545 -2.49259,-0.92318 -1.29245,-0.30773 -2.67722,-0.30773 -2.10792,0 -3.16958,0.64623 -1.04627,0.64622 -1.04627,1.93867 0,0.98473 0.75393,1.55402 0.75393,0.55391 3.03111,1.06166 l 0.96933,0.21541 q 3.01572,0.64622 4.2774,1.83097 1.27706,1.16936 1.27706,3.27728 0,2.40027 -1.9079,3.80042 -1.89252,1.40016 -5.21596,1.40016 -1.38477,0 -2.89263,-0.27696 -1.49247,-0.26156 -3.15419,-0.80008 l 0,-2.9234 q 1.5694,0.81547 3.09265,1.2309 1.52324,0.40005 3.01572,0.40005 2.00022,0 3.07726,-0.677 1.07704,-0.69239 1.07704,-1.93868 0,-1.15397 -0.7847,-1.76942 -0.76932,-0.61546 -3.40038,-1.18475 l -0.98472,-0.2308 q -2.63106,-0.5539 -3.80042,-1.69249 -1.16936,-1.15397 -1.16936,-3.15419 0,-2.43104 1.72327,-3.75427 1.72326,-1.32322 4.89284,-1.32322 1.56941,0 2.95418,0.2308 1.38477,0.23079 2.55413,0.69238 z" /><path
       inkscape:connector-curvature="0"
       id="path3541"
       style="font-size:31.51117325px;font-family:Arial-BoldMT;fill:#00578c;fill-opacity:1"
       d="m -332.52225,401.10192 2.83108,0 0,17.23267 -2.83108,0 0,-17.23267 z m 0,-6.70843 2.83108,0 0,3.58501 -2.83108,0 0,-3.58501 z" /><path
       inkscape:connector-curvature="0"
       id="path3543"
       style="font-size:31.51117325px;font-family:Arial-BoldMT;fill:#00578c;fill-opacity:1"
       d="m -320.98251,396.20907 0,4.89285 5.83141,0 0,2.20024 -5.83141,0 0,9.35488 q 0,2.10793 0.56929,2.708 0.58468,0.60006 2.35411,0.60006 l 2.90801,0 0,2.36949 -2.90801,0 q -3.27729,0 -4.52358,-1.21551 -1.24629,-1.23091 -1.24629,-4.46204 l 0,-9.35488 -2.07715,0 0,-2.20024 2.07715,0 0,-4.89285 2.84647,0 z" /><path
       inkscape:connector-curvature="0"
       id="path3545"
       style="font-size:31.51117325px;font-family:Arial-BoldMT;fill:#00578c;fill-opacity:1"
       d="m -303.58058,409.6721 q -3.43115,0 -4.75437,0.7847 -1.32323,0.7847 -1.32323,2.67722 0,1.50786 0.98473,2.40027 1.00011,0.87702 2.70799,0.87702 2.35411,0 3.76965,-1.66173 1.43092,-1.67711 1.43092,-4.44664 l 0,-0.63084 -2.81569,0 z m 5.64678,-1.16936 0,9.83185 -2.83109,0 0,-2.61567 q -0.96933,1.56941 -2.41565,2.32333 -1.44631,0.73855 -3.53885,0.73855 -2.64645,0 -4.21585,-1.47709 -1.55402,-1.49247 -1.55402,-3.98505 0,-2.90802 1.93868,-4.3851 1.95406,-1.47709 5.81602,-1.47709 l 3.96967,0 0,-0.27695 q 0,-1.95407 -1.29245,-3.01572 -1.27706,-1.07704 -3.60039,-1.07704 -1.47709,0 -2.87725,0.35388 -1.40015,0.35389 -2.6926,1.06166 l 0,-2.61568 q 1.55402,-0.60006 3.01572,-0.8924 1.4617,-0.30773 2.84647,-0.30773 3.73887,0 5.58523,1.93868 1.84636,1.93867 1.84636,5.87757 z" /><path
       inkscape:connector-curvature="0"
       id="path3547"
       style="font-size:31.51117325px;font-family:Arial-BoldMT;fill:#00578c;fill-opacity:1"
       d="m -282.1013,403.74837 q -0.47698,-0.27696 -1.04627,-0.40005 -0.55391,-0.13847 -1.23091,-0.13847 -2.40026,0 -3.69271,1.5694 -1.27707,1.55402 -1.27707,4.47742 l 0,9.07792 -2.84646,0 0,-17.23267 2.84646,0 0,2.67722 q 0.89241,-1.5694 2.32334,-2.32333 1.43092,-0.76932 3.4773,-0.76932 0.29234,0 0.64623,0.0462 0.35388,0.0308 0.7847,0.1077 l 0.0154,2.90802 z" /><path
       inkscape:connector-curvature="0"
       id="path3549"
       style="font-size:31.51117325px;font-family:Arial-BoldMT;fill:#00578c;fill-opacity:1"
       d="m -279.10097,401.10192 2.83108,0 0,17.23267 -2.83108,0 0,-17.23267 z m 0,-6.70843 2.83108,0 0,3.58501 -2.83108,0 0,-3.58501 z" /><path
       inkscape:connector-curvature="0"
       id="path3551"
       style="font-size:31.51117325px;font-family:Arial-BoldMT;fill:#00578c;fill-opacity:1"
       d="m -262.52989,409.6721 q -3.43115,0 -4.75437,0.7847 -1.32323,0.7847 -1.32323,2.67722 0,1.50786 0.98473,2.40027 1.00011,0.87702 2.70799,0.87702 2.35411,0 3.76965,-1.66173 1.43092,-1.67711 1.43092,-4.44664 l 0,-0.63084 -2.81569,0 z m 5.64678,-1.16936 0,9.83185 -2.83109,0 0,-2.61567 q -0.96933,1.56941 -2.41565,2.32333 -1.44631,0.73855 -3.53885,0.73855 -2.64645,0 -4.21585,-1.47709 -1.55402,-1.49247 -1.55402,-3.98505 0,-2.90802 1.93868,-4.3851 1.95406,-1.47709 5.81602,-1.47709 l 3.96967,0 0,-0.27695 q 0,-1.95407 -1.29245,-3.01572 -1.27706,-1.07704 -3.60039,-1.07704 -1.47709,0 -2.87725,0.35388 -1.40015,0.35389 -2.6926,1.06166 l 0,-2.61568 q 1.55402,-0.60006 3.01572,-0.8924 1.4617,-0.30773 2.84647,-0.30773 3.73887,0 5.58523,1.93868 1.84636,1.93867 1.84636,5.87757 z" /><path
       inkscape:connector-curvature="0"
       id="path3553"
       style="font-size:31.51117325px;font-family:Arial-BoldMT;fill:#00578c;fill-opacity:1"
       d="m -447.12167,441.7237 0,-9.32411 2.83109,0 0,23.94111 -2.83109,0 0,-2.5849 q -0.8924,1.53863 -2.26178,2.29256 -1.354,0.73854 -3.2619,0.73854 -3.12342,0 -5.09287,-2.49258 -1.95407,-2.49258 -1.95407,-6.55457 0,-4.06199 1.95407,-6.55457 1.96945,-2.49259 5.09287,-2.49259 1.9079,0 3.2619,0.75393 1.36938,0.73855 2.26178,2.27718 z m -9.64722,6.01605 q 0,3.12342 1.27707,4.90823 1.29245,1.76943 3.53885,1.76943 2.2464,0 3.53885,-1.76943 1.29245,-1.78481 1.29245,-4.90823 0,-3.12342 -1.29245,-4.89285 -1.29245,-1.78481 -3.53885,-1.78481 -2.2464,0 -3.53885,1.78481 -1.27707,1.76943 -1.27707,4.89285 z" /><path
       inkscape:connector-curvature="0"
       id="path3555"
       style="font-size:31.51117325px;font-family:Arial-BoldMT;fill:#00578c;fill-opacity:1"
       d="m -423.71908,447.01659 0,1.38477 -13.01682,0 q 0.18463,2.9234 1.75404,4.46203 1.58479,1.52325 4.40048,1.52325 1.63095,0 3.1542,-0.40005 1.53863,-0.40004 3.04649,-1.20013 l 0,2.67722 q -1.52325,0.64622 -3.12342,0.98472 -1.60018,0.3385 -3.24652,0.3385 -4.12353,0 -6.53918,-2.40026 -2.40027,-2.40027 -2.40027,-6.49303 0,-4.23124 2.27718,-6.70843 2.29256,-2.49259 6.16991,-2.49259 3.47731,0 5.49292,2.24641 2.03099,2.23101 2.03099,6.07759 z m -2.83108,-0.83086 q -0.0308,-2.32333 -1.30784,-3.7081 -1.26168,-1.38477 -3.35422,-1.38477 -2.36949,0 -3.80042,1.33861 -1.41554,1.33861 -1.63095,3.76965 l 10.09343,-0.0154 z" /><path
       inkscape:connector-curvature="0"
       id="path3557"
       style="font-size:31.51117325px;font-family:Arial-BoldMT;fill:#00578c;fill-opacity:1"
       d="m -408.91744,433.36893 3.10803,0 0,22.97177 -3.10803,0 0,-22.97177 z" /><path
       inkscape:connector-curvature="0"
       id="path3559"
       style="font-size:31.51117325px;font-family:Arial-BoldMT;fill:#00578c;fill-opacity:1"
       d="m -385.42254,445.93955 0,10.40115 -2.83109,0 0,-10.30883 q 0,-2.44643 -0.95395,-3.66195 -0.95395,-1.21551 -2.86185,-1.21551 -2.29256,0 -3.61579,1.4617 -1.32322,1.4617 -1.32322,3.98505 l 0,9.73954 -2.84647,0 0,-17.23267 2.84647,0 0,2.67721 q 1.0155,-1.55401 2.38488,-2.32333 1.38477,-0.76932 3.18497,-0.76932 2.96956,0 4.4928,1.84636 1.52325,1.83097 1.52325,5.4006 z" /><path
       inkscape:connector-curvature="0"
       id="path3561"
       style="font-size:31.51117325px;font-family:Arial-BoldMT;fill:#00578c;fill-opacity:1"
       d="m -368.40528,447.52434 q 0,-3.07726 -1.27706,-4.76976 -1.26168,-1.69249 -3.55424,-1.69249 -2.27718,0 -3.55424,1.69249 -1.26168,1.6925 -1.26168,4.76976 0,3.06188 1.26168,4.75437 1.27706,1.6925 3.55424,1.6925 2.29256,0 3.55424,-1.6925 1.27706,-1.69249 1.27706,-4.75437 z m 2.83108,6.67766 q 0,4.40049 -1.95406,6.53918 -1.95406,2.15409 -5.98528,2.15409 -1.49247,0 -2.81569,-0.2308 -1.32323,-0.2154 -2.56952,-0.67699 l 0,-2.75415 q 1.24629,0.67699 2.46181,1.00011 1.21552,0.32311 2.4772,0.32311 2.78492,0 4.16969,-1.4617 1.38477,-1.44631 1.38477,-4.3851 l 0,-1.40016 q -0.87702,1.52325 -2.2464,2.27718 -1.36938,0.75393 -3.27729,0.75393 -3.16958,0 -5.10825,-2.41565 -1.93868,-2.41565 -1.93868,-6.40071 0,-4.00044 1.93868,-6.41609 1.93867,-2.41566 5.10825,-2.41566 1.90791,0 3.27729,0.75393 1.36938,0.75393 2.2464,2.27718 l 0,-2.61567 2.83108,0 0,15.09397 z" /><path
       inkscape:connector-curvature="0"
       id="path3563"
       style="font-size:31.51117325px;font-family:Arial-BoldMT;fill:#00578c;fill-opacity:1"
       d="m -345.00269,447.01659 0,1.38477 -13.01683,0 q 0.18464,2.9234 1.75404,4.46203 1.5848,1.52325 4.40049,1.52325 1.63095,0 3.1542,-0.40005 1.53863,-0.40004 3.04649,-1.20013 l 0,2.67722 q -1.52325,0.64622 -3.12343,0.98472 -1.60017,0.3385 -3.24651,0.3385 -4.12353,0 -6.53918,-2.40026 -2.40027,-2.40027 -2.40027,-6.49303 0,-4.23124 2.27718,-6.70843 2.29256,-2.49259 6.16991,-2.49259 3.47731,0 5.49291,2.24641 2.031,2.23101 2.031,6.07759 z m -2.83108,-0.83086 q -0.0308,-2.32333 -1.30784,-3.7081 -1.26168,-1.38477 -3.35422,-1.38477 -2.36949,0 -3.80042,1.33861 -1.41554,1.33861 -1.63095,3.76965 l 10.09343,-0.0154 z" /><path
       inkscape:connector-curvature="0"
       id="path3565"
       style="font-size:31.51117325px;font-family:Arial-BoldMT;fill:#00578c;fill-opacity:1"
       d="m -326.03137,445.93955 0,10.40115 -2.83108,0 0,-10.30883 q 0,-2.44643 -0.95395,-3.66195 -0.95395,-1.21551 -2.86185,-1.21551 -2.29257,0 -3.61579,1.4617 -1.32322,1.4617 -1.32322,3.98505 l 0,9.73954 -2.84647,0 0,-17.23267 2.84647,0 0,2.67721 q 1.0155,-1.55401 2.38488,-2.32333 1.38477,-0.76932 3.18496,-0.76932 2.96956,0 4.49281,1.84636 1.52324,1.83097 1.52324,5.4006 z" /><path
       inkscape:connector-curvature="0"
       id="path3567"
       style="font-size:31.51117325px;font-family:Arial-BoldMT;fill:#00578c;fill-opacity:1"
       d="m -320.35382,439.10803 2.83108,0 0,17.23267 -2.83108,0 0,-17.23267 z m 0,-6.70844 2.83108,0 0,3.58501 -2.83108,0 0,-3.58501 z" /><path
       inkscape:connector-curvature="0"
       id="path3569"
       style="font-size:31.51117325px;font-family:Arial-BoldMT;fill:#00578c;fill-opacity:1"
       d="m -296.87431,447.01659 0,1.38477 -13.01682,0 q 0.18464,2.9234 1.75404,4.46203 1.58479,1.52325 4.40049,1.52325 1.63095,0 3.15419,-0.40005 1.53863,-0.40004 3.04649,-1.20013 l 0,2.67722 q -1.52324,0.64622 -3.12342,0.98472 -1.60018,0.3385 -3.24651,0.3385 -4.12353,0 -6.53919,-2.40026 -2.40026,-2.40027 -2.40026,-6.49303 0,-4.23124 2.27717,-6.70843 2.29257,-2.49259 6.16992,-2.49259 3.4773,0 5.49291,2.24641 2.03099,2.23101 2.03099,6.07759 z m -2.83108,-0.83086 q -0.0308,-2.32333 -1.30783,-3.7081 -1.26168,-1.38477 -3.35422,-1.38477 -2.36949,0 -3.80042,1.33861 -1.41554,1.33861 -1.63095,3.76965 l 10.09342,-0.0154 z" /><path
       inkscape:connector-curvature="0"
       id="path3571"
       style="font-size:31.51117325px;font-family:Arial-BoldMT;fill:#00578c;fill-opacity:1"
       d="m -282.24191,441.75447 q -0.47698,-0.27695 -1.04627,-0.40004 -0.55391,-0.13848 -1.23091,-0.13848 -2.40026,0 -3.69271,1.5694 -1.27707,1.55402 -1.27707,4.47742 l 0,9.07793 -2.84646,0 0,-17.23267 2.84646,0 0,2.67721 q 0.89241,-1.5694 2.32334,-2.32333 1.43092,-0.76932 3.4773,-0.76932 0.29234,0 0.64623,0.0462 0.35388,0.0308 0.7847,0.10771 l 0.0154,2.90801 z" /><path
       inkscape:connector-curvature="0"
       id="path3573"
       style="font-size:31.51117325px;font-family:Arial-BoldMT;fill:#00578c;fill-opacity:1"
       d="m -275.68735,431.13791 3.06187,0 -5.01594,5.78526 -2.3541,0 4.30817,-5.78526 z m -3.55424,7.97012 2.83108,0 0,17.23267 -2.83108,0 0,-17.23267 z m 1.41554,-0.41544 0,0 z" /><path
       inkscape:connector-curvature="0"
       id="path3575"
       style="font-size:31.51117325px;font-family:Arial-BoldMT;fill:#00578c;fill-opacity:1"
       d="m -262.67053,447.6782 q -3.43115,0 -4.75437,0.7847 -1.32323,0.78471 -1.32323,2.67722 0,1.50786 0.98473,2.40027 1.00011,0.87702 2.70799,0.87702 2.35411,0 3.76965,-1.66172 1.43092,-1.67711 1.43092,-4.44665 l 0,-0.63084 -2.81569,0 z m 5.64678,-1.16936 0,9.83186 -2.83109,0 0,-2.61568 q -0.96933,1.56941 -2.41565,2.32334 -1.44631,0.73854 -3.53885,0.73854 -2.64645,0 -4.21585,-1.47708 -1.55402,-1.49248 -1.55402,-3.98506 0,-2.90801 1.93868,-4.3851 1.95406,-1.47709 5.81602,-1.47709 l 3.96967,0 0,-0.27695 q 0,-1.95406 -1.29245,-3.01572 -1.27706,-1.07704 -3.60039,-1.07704 -1.47709,0 -2.87725,0.35389 -1.40015,0.35388 -2.6926,1.06165 l 0,-2.61567 q 1.55402,-0.60007 3.01572,-0.89241 1.4617,-0.30773 2.84647,-0.30773 3.73887,0 5.58523,1.93868 1.84636,1.93868 1.84636,5.87757 z" /><path
       inkscape:connector-curvature="0"
       id="path3577"
       style="font-size:31.51117325px;font-family:Arial-BoldMT;fill:#00578c;fill-opacity:1"
       d="m -478.97303,493.88889 -8.7702,-22.97177 3.24651,0 7.27773,19.3406 7.29311,-19.3406 3.23113,0 -8.75481,22.97177 -3.52347,0 z" /><path
       inkscape:connector-curvature="0"
       id="path3579"
       style="font-size:31.51117325px;font-family:Arial-BoldMT;fill:#00578c;fill-opacity:1"
       d="m -464.15601,476.65621 2.83108,0 0,17.23268 -2.83108,0 0,-17.23268 z m 0,-6.70843 2.83108,0 0,3.58501 -2.83108,0 0,-3.58501 z" /><path
       inkscape:connector-curvature="0"
       id="path3581"
       style="font-size:31.51117325px;font-family:Arial-BoldMT;fill:#00578c;fill-opacity:1"
       d="m -452.61627,471.76336 0,4.89285 5.83141,0 0,2.20025 -5.83141,0 0,9.35488 q 0,2.10792 0.56929,2.70799 0.58468,0.60006 2.35411,0.60006 l 2.90801,0 0,2.3695 -2.90801,0 q -3.27729,0 -4.52358,-1.21552 -1.24629,-1.23091 -1.24629,-4.46203 l 0,-9.35488 -2.07715,0 0,-2.20025 2.07715,0 0,-4.89285 2.84647,0 z" /><path
       inkscape:connector-curvature="0"
       id="path3583"
       style="font-size:31.51117325px;font-family:Arial-BoldMT;fill:#00578c;fill-opacity:1"
       d="m -436.36832,478.64105 q -2.27718,0 -3.6004,1.78481 -1.32322,1.76943 -1.32322,4.86208 0,3.09264 1.30783,4.87746 1.32323,1.76942 3.61579,1.76942 2.26179,0 3.58501,-1.78481 1.32322,-1.78481 1.32322,-4.86207 0,-3.06188 -1.32322,-4.84669 -1.32322,-1.8002 -3.58501,-1.8002 z m 0,-2.40027 q 3.69271,0 5.80064,2.40027 2.10792,2.40026 2.10792,6.64689 0,4.23123 -2.10792,6.64688 -2.10793,2.40027 -5.80064,2.40027 -3.7081,0 -5.81603,-2.40027 -2.09254,-2.41565 -2.09254,-6.64688 0,-4.24663 2.09254,-6.64689 2.10793,-2.40027 5.81603,-2.40027 z" /><path
       inkscape:connector-curvature="0"
       id="path3585"
       style="font-size:31.51117325px;font-family:Arial-BoldMT;fill:#00578c;fill-opacity:1"
       d="m -413.7966,479.30266 q -0.47698,-0.27695 -1.04627,-0.40005 -0.55391,-0.13847 -1.2309,-0.13847 -2.40027,0 -3.69272,1.5694 -1.27706,1.55402 -1.27706,4.47742 l 0,9.07793 -2.84647,0 0,-17.23268 2.84647,0 0,2.67722 q 0.8924,-1.5694 2.32333,-2.32333 1.43093,-0.76932 3.47731,-0.76932 0.29234,0 0.64622,0.0462 0.35389,0.0308 0.7847,0.10771 l 0.0154,2.90801 z" /><path
       inkscape:connector-curvature="0"
       id="path3587"
       style="font-size:31.51117325px;font-family:Arial-BoldMT;fill:#00578c;fill-opacity:1"
       d="m -410.79626,476.65621 2.83108,0 0,17.23268 -2.83108,0 0,-17.23268 z m 0,-6.70843 2.83108,0 0,3.58501 -2.83108,0 0,-3.58501 z" /><path
       inkscape:connector-curvature="0"
       id="path3589"
       style="font-size:31.51117325px;font-family:Arial-BoldMT;fill:#00578c;fill-opacity:1"
       d="m -394.2252,485.22639 q -3.43115,0 -4.75438,0.7847 -1.32322,0.7847 -1.32322,2.67722 0,1.50786 0.98473,2.40027 1.00011,0.87702 2.70799,0.87702 2.3541,0 3.76964,-1.66173 1.43093,-1.6771 1.43093,-4.44664 l 0,-0.63084 -2.81569,0 z m 5.64677,-1.16936 0,9.83186 -2.83108,0 0,-2.61568 q -0.96934,1.56941 -2.41565,2.32334 -1.44631,0.73854 -3.53885,0.73854 -2.64645,0 -4.21585,-1.47709 -1.55402,-1.49247 -1.55402,-3.98505 0,-2.90802 1.93867,-4.3851 1.95407,-1.47709 5.81603,-1.47709 l 3.96967,0 0,-0.27695 q 0,-1.95406 -1.29245,-3.01572 -1.27706,-1.07704 -3.6004,-1.07704 -1.47708,0 -2.87724,0.35388 -1.40015,0.35389 -2.6926,1.06166 l 0,-2.61568 q 1.55401,-0.60006 3.01571,-0.8924 1.4617,-0.30773 2.84647,-0.30773 3.73888,0 5.58524,1.93868 1.84635,1.93867 1.84635,5.87757 z" /><path
       inkscape:connector-curvature="0"
       id="path3591"
       style="font-size:31.51117325px;font-family:Arial-BoldMT;fill:#00578c;fill-opacity:1"
       d="m -384.16256,483.99548 8.29323,0 0,2.52336 -8.29323,0 0,-2.52336 z" /><path
       inkscape:connector-curvature="0"
       id="path3593"
       style="font-size:31.51117325px;font-family:Arial-BoldMT;fill:#00578c;fill-opacity:1"
       d="m -354.39004,490.6116 0,-6.16991 -5.07748,0 0,-2.55413 8.15474,0 0,9.86263 q -1.8002,1.27706 -3.96967,1.93867 -2.16947,0.64623 -4.63128,0.64623 -5.38521,0 -8.4317,-3.13881 -3.0311,-3.15419 -3.0311,-8.7702 0,-5.63139 3.0311,-8.7702 3.04649,-3.15419 8.4317,-3.15419 2.24641,0 4.26201,0.5539 2.031,0.55391 3.73888,1.63095 l 0,3.30806 q -1.72327,-1.4617 -3.66195,-2.20024 -1.93867,-0.73855 -4.07737,-0.73855 -4.21585,0 -6.33916,2.35411 -2.10793,2.35411 -2.10793,7.01616 0,4.64667 2.10793,7.00077 2.12331,2.35411 6.33916,2.35411 1.64634,0 2.93879,-0.27695 1.29245,-0.29234 2.32333,-0.89241 z" /><path
       inkscape:connector-curvature="0"
       id="path3595"
       style="font-size:31.51117325px;font-family:Arial-BoldMT;fill:#00578c;fill-opacity:1"
       d="m -337.9113,485.22639 q -3.43115,0 -4.75437,0.7847 -1.32323,0.7847 -1.32323,2.67722 0,1.50786 0.98473,2.40027 1.00011,0.87702 2.70799,0.87702 2.35411,0 3.76965,-1.66173 1.43092,-1.6771 1.43092,-4.44664 l 0,-0.63084 -2.81569,0 z m 5.64678,-1.16936 0,9.83186 -2.83109,0 0,-2.61568 q -0.96933,1.56941 -2.41565,2.32334 -1.44631,0.73854 -3.53885,0.73854 -2.64645,0 -4.21585,-1.47709 -1.55402,-1.49247 -1.55402,-3.98505 0,-2.90802 1.93868,-4.3851 1.95406,-1.47709 5.81603,-1.47709 l 3.96966,0 0,-0.27695 q 0,-1.95406 -1.29245,-3.01572 -1.27706,-1.07704 -3.60039,-1.07704 -1.47709,0 -2.87724,0.35388 -1.40016,0.35389 -2.69261,1.06166 l 0,-2.61568 q 1.55402,-0.60006 3.01572,-0.8924 1.4617,-0.30773 2.84647,-0.30773 3.73887,0 5.58523,1.93868 1.84636,1.93867 1.84636,5.87757 z" /><path
       inkscape:connector-curvature="0"
       id="path3597"
       style="font-size:31.51117325px;font-family:Arial-BoldMT;fill:#00578c;fill-opacity:1"
       d="m -315.43188,477.16396 0,2.67722 q -1.20013,-0.61545 -2.49258,-0.92318 -1.29245,-0.30773 -2.67722,-0.30773 -2.10793,0 -3.16958,0.64623 -1.04627,0.64623 -1.04627,1.93868 0,0.98472 0.75393,1.55401 0.75393,0.55391 3.0311,1.06166 l 0.96934,0.21541 q 3.01572,0.64622 4.27739,1.83097 1.27707,1.16936 1.27707,3.27728 0,2.40027 -1.9079,3.80042 -1.89252,1.40016 -5.21597,1.40016 -1.38476,0 -2.89262,-0.27696 -1.49248,-0.26156 -3.1542,-0.80008 l 0,-2.9234 q 1.56941,0.81547 3.09265,1.2309 1.52325,0.40005 3.01572,0.40005 2.00022,0 3.07726,-0.677 1.07705,-0.69239 1.07705,-1.93868 0,-1.15397 -0.78471,-1.76942 -0.76931,-0.61546 -3.40037,-1.18475 l -0.98473,-0.23079 q -2.63106,-0.55391 -3.80042,-1.6925 -1.16936,-1.15397 -1.16936,-3.15419 0,-2.43104 1.72327,-3.75426 1.72327,-1.32323 4.89285,-1.32323 1.5694,0 2.95417,0.2308 1.38477,0.23079 2.55413,0.69238 z" /><path
       inkscape:connector-curvature="0"
       id="path3599"
       style="font-size:31.51117325px;font-family:Arial-BoldMT;fill:#00578c;fill-opacity:1"
       d="m -307.18483,471.76336 0,4.89285 5.83141,0 0,2.20025 -5.83141,0 0,9.35488 q 0,2.10792 0.5693,2.70799 0.58468,0.60006 2.3541,0.60006 l 2.90801,0 0,2.3695 -2.90801,0 q -3.27728,0 -4.52358,-1.21552 -1.24629,-1.23091 -1.24629,-4.46203 l 0,-9.35488 -2.07715,0 0,-2.20025 2.07715,0 0,-4.89285 2.84647,0 z" /><path
       inkscape:connector-curvature="0"
       id="path3601"
       style="font-size:31.51117325px;font-family:Arial-BoldMT;fill:#00578c;fill-opacity:1"
       d="m -282.87444,484.56478 0,1.38477 -13.01683,0 q 0.18464,2.9234 1.75404,4.46203 1.5848,1.52324 4.40049,1.52324 1.63095,0 3.1542,-0.40004 1.53863,-0.40004 3.04649,-1.20013 l 0,2.67722 q -1.52325,0.64622 -3.12343,0.98472 -1.60017,0.3385 -3.24651,0.3385 -4.12353,0 -6.53918,-2.40027 -2.40027,-2.40026 -2.40027,-6.49302 0,-4.23124 2.27718,-6.70843 2.29256,-2.49259 6.16991,-2.49259 3.47731,0 5.49291,2.2464 2.031,2.23102 2.031,6.0776 z m -2.83108,-0.83086 q -0.0308,-2.32334 -1.30784,-3.7081 -1.26168,-1.38477 -3.35422,-1.38477 -2.36949,0 -3.80042,1.33861 -1.41554,1.33861 -1.63095,3.76964 l 10.09343,-0.0154 z" /><path
       inkscape:connector-curvature="0"
       id="path3603"
       style="font-size:31.51117325px;font-family:Arial-BoldMT;fill:#00578c;fill-opacity:1"
       d="m -278.22778,476.65621 2.83108,0 0,17.23268 -2.83108,0 0,-17.23268 z m 0,-6.70843 2.83108,0 0,3.58501 -2.83108,0 0,-3.58501 z" /><path
       inkscape:connector-curvature="0"
       id="path3605"
       style="font-size:31.51117325px;font-family:Arial-BoldMT;fill:#00578c;fill-opacity:1"
       d="m -270.71926,476.65621 13.44764,0 0,2.5849 -10.64733,12.38599 10.64733,0 0,2.26179 -13.8323,0 0,-2.58491 10.64733,-12.38598 -10.26267,0 0,-2.26179 z" /></g><path
     inkscape:connector-curvature="0"
     d="m 544.30115,72.849707 c 0,11.87583 -8.85564,21.489598 -19.79496,21.489598 -10.93931,0 -19.79496,-9.613768 -19.79496,-21.489598 0,-11.875829 8.85565,-21.489597 19.79496,-21.489597 10.93932,0.565516 19.79496,10.17928 19.79496,21.489597 z"
     id="path301"
     style="fill:#1f87b3;fill-opacity:1" /><path
     inkscape:connector-curvature="0"
     d="m 240.60486,204.04934 c 0,-9.04824 5.2092,-10.74479 14.06484,-11.87582 8.85563,-0.56552 177.63367,-16.39996 250.04153,-68.4274 72.40786,-51.461925 63.03131,-49.765376 63.03131,-36.19301 0,13.00687 0.52092,40.15162 -27.60876,56.55157 -28.12967,15.83444 -84.90993,47.50332 -184.92655,63.33776 -116.68605,16.96547 -114.60237,7.3517 -114.60237,-3.3931 z"
     id="path303"
     style="fill:#00578d;fill-opacity:1" /><g
     transform="matrix(5.2091987,0,0,5.6551569,-2228.5553,-4159.4697)"
     id="g305"
     style="fill:#004841;fill-opacity:1"><g
       id="g307"
       style="fill:#004841;fill-opacity:1"><path
         inkscape:connector-curvature="0"
         d="m 526.7,804.5 c 0,0 0,0 0,0 -0.7,0 -1.2,-0.6 -1.2,-1.3 l 1.1,-37.7 c 0,-0.7 0.6,-1.2 1.2,-1.2 0,0 0,0 0,0 0.7,0 1.2,0.6 1.2,1.3 l -1.1,37.7 c 0,0.7 -0.5,1.2 -1.2,1.2 z"
         id="path309"
         style="fill:#004841;fill-opacity:1" /></g><g
       id="g311"
       style="fill:#004841;fill-opacity:1"><path
         inkscape:connector-curvature="0"
         d="m 522.7,803.7 c 0,0 0,0 0,0 -0.7,0 -1.2,-0.6 -1.2,-1.3 l 1,-34.2 c 0,-0.7 0.6,-1.2 1.2,-1.2 0.7,0 1.2,0.6 1.2,1.2 l -0.9,34.2 c -0.1,0.8 -0.6,1.3 -1.3,1.3 z"
         id="path313"
         style="fill:#004841;fill-opacity:1" /></g><g
       id="g315"
       style="fill:#004841;fill-opacity:1"><path
         inkscape:connector-curvature="0"
         d="m 518.7,802.8 c 0,0 0,0 0,0 -0.7,0 -1.2,-0.6 -1.2,-1.3 l 0.9,-31.4 c 0,-0.7 0.6,-1.2 1.3,-1.2 0.7,0 1.2,0.6 1.2,1.3 l -0.9,31.4 c -0.1,0.7 -0.6,1.2 -1.3,1.2 z"
         id="path317"
         style="fill:#004841;fill-opacity:1" /></g><g
       id="g319"
       style="fill:#004841;fill-opacity:1"><path
         inkscape:connector-curvature="0"
         d="m 514.7,802 c 0,0 0,0 0,0 -0.7,0 -1.2,-0.6 -1.2,-1.3 l 0.8,-29.1 c 0,-0.7 0.6,-1.2 1.3,-1.2 0.7,0 1.2,0.6 1.2,1.3 l -0.8,29.1 c -0.1,0.7 -0.6,1.2 -1.3,1.2 z"
         id="path321"
         style="fill:#004841;fill-opacity:1" /></g><g
       id="g323"
       style="fill:#004841;fill-opacity:1"><path
         inkscape:connector-curvature="0"
         d="m 510.7,801.3 c 0,0 0,0 0,0 -0.7,0 -1.2,-0.6 -1.2,-1.3 l 0.8,-27.2 c 0,-0.7 0.6,-1.2 1.2,-1.2 0,0 0,0 0,0 0.7,0 1.2,0.6 1.2,1.3 l -0.8,27.2 c 0,0.6 -0.5,1.2 -1.2,1.2 z"
         id="path325"
         style="fill:#004841;fill-opacity:1" /></g><g
       id="g327"
       style="fill:#004841;fill-opacity:1"><path
         inkscape:connector-curvature="0"
         d="m 506.8,800.5 c -0.1,0 -0.1,0 0,0 -0.7,0 -1.2,-0.6 -1.2,-1.3 l 0.7,-25.5 c 0,-0.7 0.6,-1.2 1.2,-1.2 0,0 0,0 0,0 0.7,0 1.2,0.6 1.2,1.2 l -0.7,25.5 c 0,0.8 -0.6,1.3 -1.2,1.3 z"
         id="path329"
         style="fill:#004841;fill-opacity:1" /></g><g
       id="g331"
       style="fill:#004841;fill-opacity:1"><path
         inkscape:connector-curvature="0"
         d="m 502.8,799.8 c 0,0 -0.1,0 0,0 -0.7,0 -1.2,-0.6 -1.2,-1.2 l 0.7,-24.1 c 0,-0.7 0.6,-1.2 1.2,-1.2 0,0 0,0 0,0 0.7,0 1.2,0.6 1.2,1.3 l -0.7,24.1 c 0,0.6 -0.6,1.1 -1.2,1.1 z"
         id="path333"
         style="fill:#004841;fill-opacity:1" /></g><g
       id="g335"
       style="fill:#004841;fill-opacity:1"><path
         inkscape:connector-curvature="0"
         d="m 498.8,799.2 c 0,0 0,0 0,0 -0.7,0 -1.2,-0.6 -1.2,-1.3 l 0.6,-22.9 c 0,-0.7 0.6,-1.2 1.3,-1.2 0.7,0 1.2,0.6 1.2,1.3 L 500,798 c 0,0.7 -0.6,1.2 -1.2,1.2 z"
         id="path337"
         style="fill:#004841;fill-opacity:1" /></g><g
       id="g339"
       style="fill:#004841;fill-opacity:1"><path
         inkscape:connector-curvature="0"
         d="m 494.8,798.5 c 0,0 0,0 0,0 -0.7,0 -1.2,-0.6 -1.2,-1.3 l 0.6,-21.8 c 0,-0.7 0.6,-1.2 1.3,-1.2 0.7,0 1.2,0.6 1.2,1.2 l -0.6,21.8 c -0.1,0.8 -0.7,1.3 -1.3,1.3 z"
         id="path341"
         style="fill:#004841;fill-opacity:1" /></g><g
       id="g343"
       style="fill:#004841;fill-opacity:1"><path
         inkscape:connector-curvature="0"
         d="m 490.8,797.9 c 0,0 0,0 0,0 -0.7,0 -1.2,-0.6 -1.2,-1.3 l 0.6,-20.9 c 0,-0.7 0.6,-1.2 1.2,-1.2 0,0 0,0 0,0 0.7,0 1.2,0.6 1.2,1.3 l -0.6,20.9 c 0,0.7 -0.5,1.2 -1.2,1.2 z"
         id="path345"
         style="fill:#004841;fill-opacity:1" /></g><g
       id="g347"
       style="fill:#004841;fill-opacity:1"><path
         inkscape:connector-curvature="0"
         d="m 486.8,797.3 c 0,0 0,0 0,0 -0.7,0 -1.2,-0.6 -1.2,-1.3 l 0.6,-20.1 c 0,-0.7 0.6,-1.2 1.2,-1.2 0,0 0,0 0,0 0.7,0 1.2,0.6 1.2,1.3 l -0.6,20.1 c 0,0.7 -0.5,1.2 -1.2,1.2 z"
         id="path349"
         style="fill:#004841;fill-opacity:1" /></g><g
       id="g351"
       style="fill:#004841;fill-opacity:1"><path
         inkscape:connector-curvature="0"
         d="m 482.8,796.7 c 0,0 0,0 0,0 -0.7,0 -1.2,-0.6 -1.2,-1.3 l 0.5,-19.4 c 0,-0.7 0.6,-1.2 1.2,-1.2 0.7,0 1.2,0.6 1.2,1.3 l -0.5,19.4 c 0,0.7 -0.5,1.2 -1.2,1.2 z"
         id="path353"
         style="fill:#004841;fill-opacity:1" /></g><g
       id="g355"
       style="fill:#004841;fill-opacity:1"><path
         inkscape:connector-curvature="0"
         d="m 478.8,796.1 c 0,0 0,0 0,0 -0.7,0 -1.2,-0.6 -1.2,-1.3 l 0.5,-18.8 c 0,-0.7 0.6,-1.2 1.2,-1.2 0,0 0,0 0,0 0.7,0 1.2,0.6 1.2,1.3 l -0.5,18.8 c 0,0.7 -0.5,1.2 -1.2,1.2 z"
         id="path357"
         style="fill:#004841;fill-opacity:1" /></g></g></svg>